<svg width="164" height="55" viewBox="0 0 164 55" fill="none" xmlns="http://www.w3.org/2000/svg">
<path d="M2 13C2 7.47715 6.47715 3 12 3H154C159.523 3 164 7.47715 164 13V45C164 50.5228 159.523 55 154 55H12C6.47716 55 2 50.5228 2 45V13Z" fill="#62068A"/>
<path d="M0 10C0 4.47715 4.47715 0 10 0H152C157.523 0 162 4.47715 162 10V42C162 47.5228 157.523 52 152 52H10C4.47716 52 0 47.5228 0 42V10Z" fill="#C6088C"/>
<path d="M39.6288 32L36.5488 26.56H35.2288V32H32.4288V18.04H37.6688C38.7488 18.04 39.6688 18.2333 40.4288 18.62C41.1888 18.9933 41.7555 19.5067 42.1288 20.16C42.5155 20.8 42.7088 21.52 42.7088 22.32C42.7088 23.24 42.4422 24.0733 41.9088 24.82C41.3755 25.5533 40.5822 26.06 39.5288 26.34L42.8688 32H39.6288ZM35.2288 24.46H37.5688C38.3288 24.46 38.8955 24.28 39.2688 23.92C39.6422 23.5467 39.8288 23.0333 39.8288 22.38C39.8288 21.74 39.6422 21.2467 39.2688 20.9C38.8955 20.54 38.3288 20.36 37.5688 20.36H35.2288V24.46ZM55.2013 27.98C55.2013 28.6733 55.0213 29.3267 54.6613 29.94C54.3147 30.54 53.7947 31.04 53.1013 31.44C52.4213 31.8267 51.6147 32.0533 50.6813 32.12V33.74H49.4013V32.1C48.068 31.98 46.9947 31.58 46.1813 30.9C45.368 30.2067 44.948 29.2733 44.9213 28.1H47.9213C48.0013 29.06 48.4947 29.64 49.4013 29.84V26.02C48.4413 25.78 47.668 25.54 47.0813 25.3C46.4947 25.06 45.988 24.6733 45.5613 24.14C45.1347 23.6067 44.9213 22.88 44.9213 21.96C44.9213 20.8 45.3347 19.8533 46.1613 19.12C47.0013 18.3867 48.0813 17.9667 49.4013 17.86V16.24H50.6813V17.86C51.9613 17.9667 52.9813 18.3533 53.7413 19.02C54.5147 19.6867 54.948 20.6067 55.0413 21.78H52.0213C51.9813 21.3933 51.8413 21.06 51.6013 20.78C51.3747 20.4867 51.068 20.28 50.6813 20.16V23.94C51.6813 24.1933 52.468 24.44 53.0413 24.68C53.628 24.9067 54.1347 25.2867 54.5613 25.82C54.988 26.34 55.2013 27.06 55.2013 27.98ZM47.8413 21.82C47.8413 22.26 47.9747 22.62 48.2413 22.9C48.508 23.1667 48.8947 23.3867 49.4013 23.56V20.1C48.9213 20.1667 48.5413 20.3467 48.2613 20.64C47.9813 20.9333 47.8413 21.3267 47.8413 21.82ZM50.6813 29.88C51.188 29.7867 51.5813 29.58 51.8613 29.26C52.1547 28.94 52.3013 28.5533 52.3013 28.1C52.3013 27.66 52.1613 27.3067 51.8813 27.04C51.6013 26.7733 51.2013 26.5533 50.6813 26.38V29.88ZM59.5673 32.14C59.0606 32.14 58.6406 31.9867 58.3073 31.68C57.9873 31.36 57.8273 30.9667 57.8273 30.5C57.8273 30.0333 57.9873 29.6467 58.3073 29.34C58.6406 29.02 59.0606 28.86 59.5673 28.86C60.0606 28.86 60.4673 29.02 60.7873 29.34C61.1073 29.6467 61.2673 30.0333 61.2673 30.5C61.2673 30.9667 61.1073 31.36 60.7873 31.68C60.4673 31.9867 60.0606 32.14 59.5673 32.14ZM59.5673 23.86C59.0606 23.86 58.6406 23.7067 58.3073 23.4C57.9873 23.08 57.8273 22.6867 57.8273 22.22C57.8273 21.7533 57.9873 21.3667 58.3073 21.06C58.6406 20.74 59.0606 20.58 59.5673 20.58C60.0606 20.58 60.4673 20.74 60.7873 21.06C61.1073 21.3667 61.2673 21.7533 61.2673 22.22C61.2673 22.6867 61.1073 23.08 60.7873 23.4C60.4673 23.7067 60.0606 23.86 59.5673 23.86ZM67.6868 20V17.42H72.5068V32H69.6268V20H67.6868ZM85.0729 19.84H78.5929V23.26C78.8729 22.9133 79.2729 22.6333 79.7929 22.42C80.3129 22.1933 80.8662 22.08 81.4529 22.08C82.5196 22.08 83.3929 22.3133 84.0729 22.78C84.7529 23.2467 85.2462 23.8467 85.5529 24.58C85.8596 25.3 86.0129 26.0733 86.0129 26.9C86.0129 28.4333 85.5729 29.6667 84.6929 30.6C83.8262 31.5333 82.5862 32 80.9729 32C79.4529 32 78.2396 31.62 77.3329 30.86C76.4262 30.1 75.9129 29.1067 75.7929 27.88H78.5129C78.6329 28.4133 78.8996 28.84 79.3129 29.16C79.7396 29.48 80.2796 29.64 80.9329 29.64C81.7196 29.64 82.3129 29.3933 82.7129 28.9C83.1129 28.4067 83.3129 27.7533 83.3129 26.94C83.3129 26.1133 83.1062 25.4867 82.6929 25.06C82.2929 24.62 81.6996 24.4 80.9129 24.4C80.3529 24.4 79.8862 24.54 79.5129 24.82C79.1396 25.1 78.8729 25.4733 78.7129 25.94H76.0329V17.38H85.0729V19.84ZM88.144 24.52C88.144 22.2133 88.5573 20.4067 89.384 19.1C90.224 17.7933 91.6107 17.14 93.544 17.14C95.4773 17.14 96.8573 17.7933 97.684 19.1C98.524 20.4067 98.944 22.2133 98.944 24.52C98.944 26.84 98.524 28.66 97.684 29.98C96.8573 31.3 95.4773 31.96 93.544 31.96C91.6107 31.96 90.224 31.3 89.384 29.98C88.5573 28.66 88.144 26.84 88.144 24.52ZM96.184 24.52C96.184 23.5333 96.1173 22.7067 95.984 22.04C95.864 21.36 95.6107 20.8067 95.224 20.38C94.8507 19.9533 94.2907 19.74 93.544 19.74C92.7973 19.74 92.2307 19.9533 91.844 20.38C91.4707 20.8067 91.2173 21.36 91.084 22.04C90.964 22.7067 90.904 23.5333 90.904 24.52C90.904 25.5333 90.964 26.3867 91.084 27.08C91.204 27.76 91.4573 28.3133 91.844 28.74C92.2307 29.1533 92.7973 29.36 93.544 29.36C94.2907 29.36 94.8573 29.1533 95.244 28.74C95.6307 28.3133 95.884 27.76 96.004 27.08C96.124 26.3867 96.184 25.5333 96.184 24.52ZM104.454 29.06L102.114 34.68H100.314L101.614 29.06H104.454ZM106.152 24.52C106.152 22.2133 106.565 20.4067 107.392 19.1C108.232 17.7933 109.618 17.14 111.552 17.14C113.485 17.14 114.865 17.7933 115.692 19.1C116.532 20.4067 116.952 22.2133 116.952 24.52C116.952 26.84 116.532 28.66 115.692 29.98C114.865 31.3 113.485 31.96 111.552 31.96C109.618 31.96 108.232 31.3 107.392 29.98C106.565 28.66 106.152 26.84 106.152 24.52ZM114.192 24.52C114.192 23.5333 114.125 22.7067 113.992 22.04C113.872 21.36 113.618 20.8067 113.232 20.38C112.858 19.9533 112.298 19.74 111.552 19.74C110.805 19.74 110.238 19.9533 109.852 20.38C109.478 20.8067 109.225 21.36 109.092 22.04C108.972 22.7067 108.912 23.5333 108.912 24.52C108.912 25.5333 108.972 26.3867 109.092 27.08C109.212 27.76 109.465 28.3133 109.852 28.74C110.238 29.1533 110.805 29.36 111.552 29.36C112.298 29.36 112.865 29.1533 113.252 28.74C113.638 28.3133 113.892 27.76 114.012 27.08C114.132 26.3867 114.192 25.5333 114.192 24.52ZM119.081 24.52C119.081 22.2133 119.495 20.4067 120.321 19.1C121.161 17.7933 122.548 17.14 124.481 17.14C126.415 17.14 127.795 17.7933 128.621 19.1C129.461 20.4067 129.881 22.2133 129.881 24.52C129.881 26.84 129.461 28.66 128.621 29.98C127.795 31.3 126.415 31.96 124.481 31.96C122.548 31.96 121.161 31.3 120.321 29.98C119.495 28.66 119.081 26.84 119.081 24.52ZM127.121 24.52C127.121 23.5333 127.055 22.7067 126.921 22.04C126.801 21.36 126.548 20.8067 126.161 20.38C125.788 19.9533 125.228 19.74 124.481 19.74C123.735 19.74 123.168 19.9533 122.781 20.38C122.408 20.8067 122.155 21.36 122.021 22.04C121.901 22.7067 121.841 23.5333 121.841 24.52C121.841 25.5333 121.901 26.3867 122.021 27.08C122.141 27.76 122.395 28.3133 122.781 28.74C123.168 29.1533 123.735 29.36 124.481 29.36C125.228 29.36 125.795 29.1533 126.181 28.74C126.568 28.3133 126.821 27.76 126.941 27.08C127.061 26.3867 127.121 25.5333 127.121 24.52Z" fill="white"/>
</svg>
