<svg width="164" height="55" viewBox="0 0 164 55" fill="none" xmlns="http://www.w3.org/2000/svg">
<path d="M2 13C2 7.47715 6.47715 3 12 3H154C159.523 3 164 7.47715 164 13V45C164 50.5228 159.523 55 154 55H12C6.47716 55 2 50.5228 2 45V13Z" fill="#62068A"/>
<path d="M0 10C0 4.47715 4.47715 0 10 0H152C157.523 0 162 4.47715 162 10V42C162 47.5228 157.523 52 152 52H10C4.47716 52 0 47.5228 0 42V10Z" fill="#C6088C"/>
<path d="M43.7909 32L40.7109 26.56H39.3909V32H36.5909V18.04H41.8309C42.9109 18.04 43.8309 18.2333 44.5909 18.62C45.3509 18.9933 45.9176 19.5067 46.2909 20.16C46.6776 20.8 46.8709 21.52 46.8709 22.32C46.8709 23.24 46.6043 24.0733 46.0709 24.82C45.5376 25.5533 44.7443 26.06 43.6909 26.34L47.0309 32H43.7909ZM39.3909 24.46H41.7309C42.4909 24.46 43.0576 24.28 43.4309 23.92C43.8043 23.5467 43.9909 23.0333 43.9909 22.38C43.9909 21.74 43.8043 21.2467 43.4309 20.9C43.0576 20.54 42.4909 20.36 41.7309 20.36H39.3909V24.46ZM59.3634 27.98C59.3634 28.6733 59.1834 29.3267 58.8234 29.94C58.4768 30.54 57.9568 31.04 57.2634 31.44C56.5834 31.8267 55.7768 32.0533 54.8434 32.12V33.74H53.5634V32.1C52.2301 31.98 51.1568 31.58 50.3434 30.9C49.5301 30.2067 49.1101 29.2733 49.0834 28.1H52.0834C52.1634 29.06 52.6568 29.64 53.5634 29.84V26.02C52.6034 25.78 51.8301 25.54 51.2434 25.3C50.6568 25.06 50.1501 24.6733 49.7234 24.14C49.2968 23.6067 49.0834 22.88 49.0834 21.96C49.0834 20.8 49.4968 19.8533 50.3234 19.12C51.1634 18.3867 52.2434 17.9667 53.5634 17.86V16.24H54.8434V17.86C56.1234 17.9667 57.1434 18.3533 57.9034 19.02C58.6768 19.6867 59.1101 20.6067 59.2034 21.78H56.1834C56.1434 21.3933 56.0034 21.06 55.7634 20.78C55.5368 20.4867 55.2301 20.28 54.8434 20.16V23.94C55.8434 24.1933 56.6301 24.44 57.2034 24.68C57.7901 24.9067 58.2968 25.2867 58.7234 25.82C59.1501 26.34 59.3634 27.06 59.3634 27.98ZM52.0034 21.82C52.0034 22.26 52.1368 22.62 52.4034 22.9C52.6701 23.1667 53.0568 23.3867 53.5634 23.56V20.1C53.0834 20.1667 52.7034 20.3467 52.4234 20.64C52.1434 20.9333 52.0034 21.3267 52.0034 21.82ZM54.8434 29.88C55.3501 29.7867 55.7434 29.58 56.0234 29.26C56.3168 28.94 56.4634 28.5533 56.4634 28.1C56.4634 27.66 56.3234 27.3067 56.0434 27.04C55.7634 26.7733 55.3634 26.5533 54.8434 26.38V29.88ZM63.7294 32.14C63.2227 32.14 62.8027 31.9867 62.4694 31.68C62.1494 31.36 61.9894 30.9667 61.9894 30.5C61.9894 30.0333 62.1494 29.6467 62.4694 29.34C62.8027 29.02 63.2227 28.86 63.7294 28.86C64.2227 28.86 64.6294 29.02 64.9494 29.34C65.2694 29.6467 65.4294 30.0333 65.4294 30.5C65.4294 30.9667 65.2694 31.36 64.9494 31.68C64.6294 31.9867 64.2227 32.14 63.7294 32.14ZM63.7294 23.86C63.2227 23.86 62.8027 23.7067 62.4694 23.4C62.1494 23.08 61.9894 22.6867 61.9894 22.22C61.9894 21.7533 62.1494 21.3667 62.4694 21.06C62.8027 20.74 63.2227 20.58 63.7294 20.58C64.2227 20.58 64.6294 20.74 64.9494 21.06C65.2694 21.3667 65.4294 21.7533 65.4294 22.22C65.4294 22.6867 65.2694 23.08 64.9494 23.4C64.6294 23.7067 64.2227 23.86 63.7294 23.86ZM79.7489 21.06C79.6156 20.5 79.3822 20.08 79.0489 19.8C78.7289 19.52 78.2622 19.38 77.6489 19.38C76.7289 19.38 76.0489 19.7533 75.6089 20.5C75.1822 21.2333 74.9622 22.4333 74.9489 24.1C75.2689 23.5667 75.7356 23.1533 76.3489 22.86C76.9622 22.5533 77.6289 22.4 78.3489 22.4C79.2156 22.4 79.9822 22.5867 80.6489 22.96C81.3156 23.3333 81.8356 23.88 82.2089 24.6C82.5822 25.3067 82.7689 26.16 82.7689 27.16C82.7689 28.1067 82.5756 28.9533 82.1889 29.7C81.8156 30.4333 81.2622 31.0067 80.5289 31.42C79.7956 31.8333 78.9222 32.04 77.9089 32.04C76.5222 32.04 75.4289 31.7333 74.6289 31.12C73.8422 30.5067 73.2889 29.6533 72.9689 28.56C72.6622 27.4533 72.5089 26.0933 72.5089 24.48C72.5089 22.04 72.9289 20.2 73.7689 18.96C74.6089 17.7067 75.9356 17.08 77.7489 17.08C79.1489 17.08 80.2356 17.46 81.0089 18.22C81.7822 18.98 82.2289 19.9267 82.3489 21.06H79.7489ZM77.7089 24.7C77.0022 24.7 76.4089 24.9067 75.9289 25.32C75.4489 25.7333 75.2089 26.3333 75.2089 27.12C75.2089 27.9067 75.4289 28.5267 75.8689 28.98C76.3222 29.4333 76.9556 29.66 77.7689 29.66C78.4889 29.66 79.0556 29.44 79.4689 29C79.8956 28.56 80.1089 27.9667 80.1089 27.22C80.1089 26.4467 79.9022 25.8333 79.4889 25.38C79.0889 24.9267 78.4956 24.7 77.7089 24.7ZM84.9819 24.52C84.9819 22.2133 85.3952 20.4067 86.2219 19.1C87.0619 17.7933 88.4485 17.14 90.3819 17.14C92.3152 17.14 93.6952 17.7933 94.5219 19.1C95.3619 20.4067 95.7819 22.2133 95.7819 24.52C95.7819 26.84 95.3619 28.66 94.5219 29.98C93.6952 31.3 92.3152 31.96 90.3819 31.96C88.4485 31.96 87.0619 31.3 86.2219 29.98C85.3952 28.66 84.9819 26.84 84.9819 24.52ZM93.0219 24.52C93.0219 23.5333 92.9552 22.7067 92.8219 22.04C92.7019 21.36 92.4485 20.8067 92.0619 20.38C91.6885 19.9533 91.1285 19.74 90.3819 19.74C89.6352 19.74 89.0685 19.9533 88.6819 20.38C88.3085 20.8067 88.0552 21.36 87.9219 22.04C87.8019 22.7067 87.7419 23.5333 87.7419 24.52C87.7419 25.5333 87.8019 26.3867 87.9219 27.08C88.0419 27.76 88.2952 28.3133 88.6819 28.74C89.0685 29.1533 89.6352 29.36 90.3819 29.36C91.1285 29.36 91.6952 29.1533 92.0819 28.74C92.4685 28.3133 92.7219 27.76 92.8419 27.08C92.9619 26.3867 93.0219 25.5333 93.0219 24.52ZM101.292 29.06L98.9516 34.68H97.1516L98.4516 29.06H101.292ZM102.99 24.52C102.99 22.2133 103.403 20.4067 104.23 19.1C105.07 17.7933 106.456 17.14 108.39 17.14C110.323 17.14 111.703 17.7933 112.53 19.1C113.37 20.4067 113.79 22.2133 113.79 24.52C113.79 26.84 113.37 28.66 112.53 29.98C111.703 31.3 110.323 31.96 108.39 31.96C106.456 31.96 105.07 31.3 104.23 29.98C103.403 28.66 102.99 26.84 102.99 24.52ZM111.03 24.52C111.03 23.5333 110.963 22.7067 110.83 22.04C110.71 21.36 110.456 20.8067 110.07 20.38C109.696 19.9533 109.136 19.74 108.39 19.74C107.643 19.74 107.076 19.9533 106.69 20.38C106.316 20.8067 106.063 21.36 105.93 22.04C105.81 22.7067 105.75 23.5333 105.75 24.52C105.75 25.5333 105.81 26.3867 105.93 27.08C106.05 27.76 106.303 28.3133 106.69 28.74C107.076 29.1533 107.643 29.36 108.39 29.36C109.136 29.36 109.703 29.1533 110.09 28.74C110.476 28.3133 110.73 27.76 110.85 27.08C110.97 26.3867 111.03 25.5333 111.03 24.52ZM115.919 24.52C115.919 22.2133 116.333 20.4067 117.159 19.1C117.999 17.7933 119.386 17.14 121.319 17.14C123.253 17.14 124.633 17.7933 125.459 19.1C126.299 20.4067 126.719 22.2133 126.719 24.52C126.719 26.84 126.299 28.66 125.459 29.98C124.633 31.3 123.253 31.96 121.319 31.96C119.386 31.96 117.999 31.3 117.159 29.98C116.333 28.66 115.919 26.84 115.919 24.52ZM123.959 24.52C123.959 23.5333 123.893 22.7067 123.759 22.04C123.639 21.36 123.386 20.8067 122.999 20.38C122.626 19.9533 122.066 19.74 121.319 19.74C120.573 19.74 120.006 19.9533 119.619 20.38C119.246 20.8067 118.993 21.36 118.859 22.04C118.739 22.7067 118.679 23.5333 118.679 24.52C118.679 25.5333 118.739 26.3867 118.859 27.08C118.979 27.76 119.233 28.3133 119.619 28.74C120.006 29.1533 120.573 29.36 121.319 29.36C122.066 29.36 122.633 29.1533 123.019 28.74C123.406 28.3133 123.659 27.76 123.779 27.08C123.899 26.3867 123.959 25.5333 123.959 24.52Z" fill="white"/>
</svg>
