<svg width="164" height="55" viewBox="0 0 164 55" fill="none" xmlns="http://www.w3.org/2000/svg">
<path d="M2 13C2 7.47715 6.47715 3 12 3H154C159.523 3 164 7.47715 164 13V45C164 50.5228 159.523 55 154 55H12C6.47716 55 2 50.5228 2 45V13Z" fill="#62068A"/>
<path d="M0 10C0 4.47715 4.47715 0 10 0H152C157.523 0 162 4.47715 162 10V42C162 47.5228 157.523 52 152 52H10C4.47716 52 0 47.5228 0 42V10Z" fill="#C6088C"/>
<path d="M40.1277 25C40.1277 23.6267 40.4344 22.4 41.0477 21.32C41.6744 20.2267 42.5211 19.38 43.5877 18.78C44.6677 18.1667 45.8744 17.86 47.2077 17.86C48.7677 17.86 50.1344 18.26 51.3077 19.06C52.4811 19.86 53.3011 20.9667 53.7677 22.38H50.5477C50.2277 21.7133 49.7744 21.2133 49.1877 20.88C48.6144 20.5467 47.9477 20.38 47.1877 20.38C46.3744 20.38 45.6477 20.5733 45.0077 20.96C44.3811 21.3333 43.8877 21.8667 43.5277 22.56C43.1811 23.2533 43.0077 24.0667 43.0077 25C43.0077 25.92 43.1811 26.7333 43.5277 27.44C43.8877 28.1333 44.3811 28.6733 45.0077 29.06C45.6477 29.4333 46.3744 29.62 47.1877 29.62C47.9477 29.62 48.6144 29.4533 49.1877 29.12C49.7744 28.7733 50.2277 28.2667 50.5477 27.6H53.7677C53.3011 29.0267 52.4811 30.14 51.3077 30.94C50.1477 31.7267 48.7811 32.12 47.2077 32.12C45.8744 32.12 44.6677 31.82 43.5877 31.22C42.5211 30.6067 41.6744 29.76 41.0477 28.68C40.4344 27.6 40.1277 26.3733 40.1277 25ZM61.0793 32.18C60.0126 32.18 59.0526 31.9467 58.1993 31.48C57.346 31 56.6726 30.3267 56.1793 29.46C55.6993 28.5933 55.4593 27.5933 55.4593 26.46C55.4593 25.3267 55.706 24.3267 56.1993 23.46C56.706 22.5933 57.3926 21.9267 58.2593 21.46C59.126 20.98 60.0926 20.74 61.1593 20.74C62.226 20.74 63.1926 20.98 64.0593 21.46C64.926 21.9267 65.606 22.5933 66.0993 23.46C66.606 24.3267 66.8593 25.3267 66.8593 26.46C66.8593 27.5933 66.5993 28.5933 66.0793 29.46C65.5726 30.3267 64.8793 31 63.9993 31.48C63.1326 31.9467 62.1593 32.18 61.0793 32.18ZM61.0793 29.74C61.586 29.74 62.0593 29.62 62.4993 29.38C62.9526 29.1267 63.3126 28.7533 63.5793 28.26C63.846 27.7667 63.9793 27.1667 63.9793 26.46C63.9793 25.4067 63.6993 24.6 63.1393 24.04C62.5926 23.4667 61.9193 23.18 61.1193 23.18C60.3193 23.18 59.646 23.4667 59.0993 24.04C58.566 24.6 58.2993 25.4067 58.2993 26.46C58.2993 27.5133 58.5593 28.3267 59.0793 28.9C59.6126 29.46 60.2793 29.74 61.0793 29.74ZM75.0532 20.76C76.3732 20.76 77.4399 21.18 78.2532 22.02C79.0665 22.8467 79.4732 24.0067 79.4732 25.5V32H76.6732V25.88C76.6732 25 76.4532 24.3267 76.0132 23.86C75.5732 23.38 74.9732 23.14 74.2132 23.14C73.4399 23.14 72.8265 23.38 72.3732 23.86C71.9332 24.3267 71.7132 25 71.7132 25.88V32H68.9132V20.92H71.7132V22.3C72.0865 21.82 72.5599 21.4467 73.1332 21.18C73.7199 20.9 74.3599 20.76 75.0532 20.76ZM85.3959 23.22V28.58C85.3959 28.9533 85.4825 29.2267 85.6559 29.4C85.8425 29.56 86.1492 29.64 86.5759 29.64H87.8759V32H86.1159C83.7559 32 82.5759 30.8533 82.5759 28.56V23.22H81.2559V20.92H82.5759V18.18H85.3959V20.92H87.8759V23.22H85.3959ZM89.1698 26.42C89.1698 25.3 89.3898 24.3067 89.8298 23.44C90.2831 22.5733 90.8898 21.9067 91.6498 21.44C92.4231 20.9733 93.2831 20.74 94.2298 20.74C95.0564 20.74 95.7764 20.9067 96.3898 21.24C97.0164 21.5733 97.5164 21.9933 97.8898 22.5V20.92H100.71V32H97.8898V30.38C97.5298 30.9 97.0298 31.3333 96.3898 31.68C95.7631 32.0133 95.0364 32.18 94.2098 32.18C93.2764 32.18 92.4231 31.94 91.6498 31.46C90.8898 30.98 90.2831 30.3067 89.8298 29.44C89.3898 28.56 89.1698 27.5533 89.1698 26.42ZM97.8898 26.46C97.8898 25.78 97.7564 25.2 97.4898 24.72C97.2231 24.2267 96.8631 23.8533 96.4098 23.6C95.9564 23.3333 95.4698 23.2 94.9498 23.2C94.4298 23.2 93.9498 23.3267 93.5098 23.58C93.0698 23.8333 92.7098 24.2067 92.4298 24.7C92.1631 25.18 92.0298 25.7533 92.0298 26.42C92.0298 27.0867 92.1631 27.6733 92.4298 28.18C92.7098 28.6733 93.0698 29.0533 93.5098 29.32C93.9631 29.5867 94.4431 29.72 94.9498 29.72C95.4698 29.72 95.9564 29.5933 96.4098 29.34C96.8631 29.0733 97.2231 28.7 97.4898 28.22C97.7564 27.7267 97.8898 27.14 97.8898 26.46ZM106.704 23.22V28.58C106.704 28.9533 106.791 29.2267 106.964 29.4C107.151 29.56 107.458 29.64 107.884 29.64H109.184V32H107.424C105.064 32 103.884 30.8533 103.884 28.56V23.22H102.564V20.92H103.884V18.18H106.704V20.92H109.184V23.22H106.704ZM116.118 32.18C115.052 32.18 114.092 31.9467 113.238 31.48C112.385 31 111.712 30.3267 111.218 29.46C110.738 28.5933 110.498 27.5933 110.498 26.46C110.498 25.3267 110.745 24.3267 111.238 23.46C111.745 22.5933 112.432 21.9267 113.298 21.46C114.165 20.98 115.132 20.74 116.198 20.74C117.265 20.74 118.232 20.98 119.098 21.46C119.965 21.9267 120.645 22.5933 121.138 23.46C121.645 24.3267 121.898 25.3267 121.898 26.46C121.898 27.5933 121.638 28.5933 121.118 29.46C120.612 30.3267 119.918 31 119.038 31.48C118.172 31.9467 117.198 32.18 116.118 32.18ZM116.118 29.74C116.625 29.74 117.098 29.62 117.538 29.38C117.992 29.1267 118.352 28.7533 118.618 28.26C118.885 27.7667 119.018 27.1667 119.018 26.46C119.018 25.4067 118.738 24.6 118.178 24.04C117.632 23.4667 116.958 23.18 116.158 23.18C115.358 23.18 114.685 23.4667 114.138 24.04C113.605 24.6 113.338 25.4067 113.338 26.46C113.338 27.5133 113.598 28.3267 114.118 28.9C114.652 29.46 115.318 29.74 116.118 29.74Z" fill="white"/>
</svg>
