<svg width="50" height="50" viewBox="0 0 50 50" fill="none" xmlns="http://www.w3.org/2000/svg">
<path d="M40.979 6.81992C40.9662 6.78899 40.945 6.76476 40.9193 6.75156C37.9409 5.04342 34.7979 3.82538 31.5688 3.12793C31.5395 3.12111 31.5092 3.12603 31.4822 3.14198C31.4552 3.15794 31.433 3.18411 31.4186 3.21679C30.9906 4.18778 30.6021 5.18514 30.2545 6.20508C26.7738 5.54461 23.2332 5.54461 19.7525 6.20508C19.4026 5.18255 19.0079 4.18494 18.5701 3.21679C18.5551 3.18482 18.5327 3.15925 18.5059 3.1434C18.4791 3.12755 18.4491 3.12216 18.4198 3.12793C15.1904 3.82392 12.0471 5.04205 9.06913 6.75166C9.04364 6.76517 9.02213 6.78823 9.00757 6.81767C3.05218 17.9347 1.42077 28.7783 2.22108 39.4877C2.22333 39.5139 2.22979 39.5393 2.24005 39.5624C2.25032 39.5855 2.26419 39.6057 2.28085 39.622C5.74862 42.8315 9.62736 45.2813 13.7516 46.867C13.7806 46.8779 13.8116 46.8774 13.8404 46.8656C13.8692 46.8538 13.8945 46.8312 13.9127 46.801C14.7985 45.2944 15.5834 43.6991 16.2594 42.0312C16.2687 42.0084 16.274 41.9833 16.2749 41.9576C16.2759 41.932 16.2725 41.9064 16.265 41.8825C16.2575 41.8586 16.246 41.837 16.2313 41.8191C16.2166 41.8012 16.199 41.7873 16.1798 41.7785C14.9421 41.1866 13.7438 40.473 12.5963 39.6444C12.5755 39.6291 12.558 39.6076 12.5453 39.5818C12.5327 39.5561 12.5254 39.5268 12.5239 39.4966C12.5225 39.4664 12.527 39.4363 12.5372 39.4088C12.5473 39.3814 12.5626 39.3574 12.5819 39.3392C12.8226 39.1137 13.0636 38.8791 13.2935 38.6422C13.3139 38.6212 13.3386 38.6077 13.3649 38.6033C13.3911 38.5988 13.4178 38.6037 13.4419 38.6172C20.9598 42.906 29.099 42.906 36.5279 38.6172C36.5521 38.6028 36.5791 38.5973 36.6057 38.6013C36.6323 38.6054 36.6574 38.6187 36.6782 38.6399C36.9082 38.8769 37.1491 39.1137 37.3916 39.3392C37.411 39.3573 37.4265 39.381 37.4367 39.4084C37.447 39.4357 37.4517 39.4658 37.4505 39.496C37.4492 39.5262 37.442 39.5555 37.4296 39.5814C37.4171 39.6073 37.3997 39.6289 37.379 39.6444C36.2341 40.4799 35.0347 41.1931 33.7938 41.7763C33.7745 41.7854 33.757 41.7996 33.7424 41.8178C33.7279 41.836 33.7165 41.8578 33.7091 41.8819C33.7017 41.906 33.6985 41.9317 33.6996 41.9575C33.7008 41.9832 33.7062 42.0083 33.7157 42.0312C34.403 43.6898 35.1867 45.2831 36.0605 46.7983C36.0783 46.8294 36.1034 46.8527 36.1323 46.865C36.1612 46.8773 36.1925 46.8779 36.2217 46.8667C40.3533 45.2864 44.2388 42.8363 47.7109 39.622C47.7278 39.6065 47.7419 39.5868 47.7522 39.564C47.7625 39.5413 47.7688 39.516 47.7707 39.4899C48.7288 27.1088 46.1666 16.354 40.979 6.81992ZM17.3821 32.9668C15.1187 32.9668 13.2537 30.3704 13.2537 27.1817C13.2537 23.9931 15.0825 21.3965 17.3821 21.3965C19.6997 21.3965 21.5466 24.0156 21.5105 27.1815C21.5105 30.3704 19.6816 32.9668 17.3821 32.9668ZM32.6462 32.9668C30.3828 32.9668 28.5178 30.3704 28.5178 27.1817C28.5178 23.9931 30.3466 21.3965 32.6462 21.3965C34.9639 21.3965 36.8108 24.0156 36.7746 27.1815C36.7746 30.3704 34.9639 32.9668 32.6462 32.9668Z" fill="#76CFFF"/>
</svg>
