<svg width="164" height="55" viewBox="0 0 164 55" fill="none" xmlns="http://www.w3.org/2000/svg">
<path d="M2 13C2 7.47715 6.47715 3 12 3H154C159.523 3 164 7.47715 164 13V45C164 50.5228 159.523 55 154 55H12C6.47716 55 2 50.5228 2 45V13Z" fill="#62068A"/>
<path d="M0 10C0 4.47715 4.47715 0 10 0H152C157.523 0 162 4.47715 162 10V42C162 47.5228 157.523 52 152 52H10C4.47716 52 0 47.5228 0 42V10Z" fill="#C6088C"/>
<path d="M19.2834 18.04C20.7501 18.04 22.0368 18.3267 23.1434 18.9C24.2634 19.4733 25.1234 20.2933 25.7234 21.36C26.3368 22.4133 26.6434 23.64 26.6434 25.04C26.6434 26.44 26.3368 27.6667 25.7234 28.72C25.1234 29.76 24.2634 30.5667 23.1434 31.14C22.0368 31.7133 20.7501 32 19.2834 32H14.4034V18.04H19.2834ZM19.1834 29.62C20.6501 29.62 21.7834 29.22 22.5834 28.42C23.3834 27.62 23.7834 26.4933 23.7834 25.04C23.7834 23.5867 23.3834 22.4533 22.5834 21.64C21.7834 20.8133 20.6501 20.4 19.1834 20.4H17.2034V29.62H19.1834ZM33.6594 32.18C32.5927 32.18 31.6327 31.9467 30.7794 31.48C29.926 31 29.2527 30.3267 28.7594 29.46C28.2794 28.5933 28.0394 27.5933 28.0394 26.46C28.0394 25.3267 28.286 24.3267 28.7794 23.46C29.286 22.5933 29.9727 21.9267 30.8394 21.46C31.706 20.98 32.6727 20.74 33.7394 20.74C34.806 20.74 35.7727 20.98 36.6394 21.46C37.506 21.9267 38.186 22.5933 38.6794 23.46C39.186 24.3267 39.4394 25.3267 39.4394 26.46C39.4394 27.5933 39.1794 28.5933 38.6594 29.46C38.1527 30.3267 37.4594 31 36.5794 31.48C35.7127 31.9467 34.7394 32.18 33.6594 32.18ZM33.6594 29.74C34.166 29.74 34.6394 29.62 35.0794 29.38C35.5327 29.1267 35.8927 28.7533 36.1594 28.26C36.426 27.7667 36.5594 27.1667 36.5594 26.46C36.5594 25.4067 36.2794 24.6 35.7194 24.04C35.1727 23.4667 34.4994 23.18 33.6994 23.18C32.8994 23.18 32.226 23.4667 31.6794 24.04C31.146 24.6 30.8794 25.4067 30.8794 26.46C30.8794 27.5133 31.1394 28.3267 31.6594 28.9C32.1927 29.46 32.8594 29.74 33.6594 29.74ZM56.8533 20.92L53.6133 32H50.5933L48.5733 24.26L46.5533 32H43.5133L40.2533 20.92H43.0933L45.0533 29.36L47.1733 20.92H50.1333L52.2133 29.34L54.1733 20.92H56.8533ZM64.5083 20.76C65.8283 20.76 66.8949 21.18 67.7083 22.02C68.5216 22.8467 68.9283 24.0067 68.9283 25.5V32H66.1283V25.88C66.1283 25 65.9083 24.3267 65.4683 23.86C65.0283 23.38 64.4283 23.14 63.6683 23.14C62.8949 23.14 62.2816 23.38 61.8283 23.86C61.3883 24.3267 61.1683 25 61.1683 25.88V32H58.3683V20.92H61.1683V22.3C61.5416 21.82 62.0149 21.4467 62.5883 21.18C63.1749 20.9 63.8149 20.76 64.5083 20.76ZM74.3909 17.2V32H71.5909V17.2H74.3909ZM82.0773 32.18C81.0107 32.18 80.0507 31.9467 79.1973 31.48C78.344 31 77.6707 30.3267 77.1773 29.46C76.6973 28.5933 76.4573 27.5933 76.4573 26.46C76.4573 25.3267 76.704 24.3267 77.1973 23.46C77.704 22.5933 78.3907 21.9267 79.2573 21.46C80.124 20.98 81.0907 20.74 82.1573 20.74C83.224 20.74 84.1907 20.98 85.0573 21.46C85.924 21.9267 86.604 22.5933 87.0973 23.46C87.604 24.3267 87.8573 25.3267 87.8573 26.46C87.8573 27.5933 87.5973 28.5933 87.0773 29.46C86.5707 30.3267 85.8773 31 84.9973 31.48C84.1307 31.9467 83.1573 32.18 82.0773 32.18ZM82.0773 29.74C82.584 29.74 83.0573 29.62 83.4973 29.38C83.9507 29.1267 84.3107 28.7533 84.5773 28.26C84.844 27.7667 84.9773 27.1667 84.9773 26.46C84.9773 25.4067 84.6973 24.6 84.1373 24.04C83.5907 23.4667 82.9173 23.18 82.1173 23.18C81.3173 23.18 80.644 23.4667 80.0973 24.04C79.564 24.6 79.2973 25.4067 79.2973 26.46C79.2973 27.5133 79.5573 28.3267 80.0773 28.9C80.6107 29.46 81.2773 29.74 82.0773 29.74ZM89.1912 26.42C89.1912 25.3 89.4112 24.3067 89.8512 23.44C90.3046 22.5733 90.9113 21.9067 91.6713 21.44C92.4446 20.9733 93.3046 20.74 94.2513 20.74C95.0779 20.74 95.7979 20.9067 96.4113 21.24C97.0379 21.5733 97.5379 21.9933 97.9113 22.5V20.92H100.731V32H97.9113V30.38C97.5513 30.9 97.0513 31.3333 96.4113 31.68C95.7846 32.0133 95.0579 32.18 94.2313 32.18C93.2979 32.18 92.4446 31.94 91.6713 31.46C90.9113 30.98 90.3046 30.3067 89.8512 29.44C89.4112 28.56 89.1912 27.5533 89.1912 26.42ZM97.9113 26.46C97.9113 25.78 97.7779 25.2 97.5113 24.72C97.2446 24.2267 96.8846 23.8533 96.4313 23.6C95.9779 23.3333 95.4913 23.2 94.9713 23.2C94.4513 23.2 93.9713 23.3267 93.5312 23.58C93.0913 23.8333 92.7313 24.2067 92.4513 24.7C92.1846 25.18 92.0513 25.7533 92.0513 26.42C92.0513 27.0867 92.1846 27.6733 92.4513 28.18C92.7313 28.6733 93.0913 29.0533 93.5312 29.32C93.9846 29.5867 94.4646 29.72 94.9713 29.72C95.4913 29.72 95.9779 29.5933 96.4313 29.34C96.8846 29.0733 97.2446 28.7 97.5113 28.22C97.7779 27.7267 97.9113 27.14 97.9113 26.46ZM102.746 26.42C102.746 25.3 102.966 24.3067 103.406 23.44C103.859 22.5733 104.473 21.9067 105.246 21.44C106.019 20.9733 106.879 20.74 107.826 20.74C108.546 20.74 109.233 20.9 109.886 21.22C110.539 21.5267 111.059 21.94 111.446 22.46V17.2H114.286V32H111.446V30.36C111.099 30.9067 110.613 31.3467 109.986 31.68C109.359 32.0133 108.633 32.18 107.806 32.18C106.873 32.18 106.019 31.94 105.246 31.46C104.473 30.98 103.859 30.3067 103.406 29.44C102.966 28.56 102.746 27.5533 102.746 26.42ZM111.466 26.46C111.466 25.78 111.333 25.2 111.066 24.72C110.799 24.2267 110.439 23.8533 109.986 23.6C109.533 23.3333 109.046 23.2 108.526 23.2C108.006 23.2 107.526 23.3267 107.086 23.58C106.646 23.8333 106.286 24.2067 106.006 24.7C105.739 25.18 105.606 25.7533 105.606 26.42C105.606 27.0867 105.739 27.6733 106.006 28.18C106.286 28.6733 106.646 29.0533 107.086 29.32C107.539 29.5867 108.019 29.72 108.526 29.72C109.046 29.72 109.533 29.5933 109.986 29.34C110.439 29.0733 110.799 28.7 111.066 28.22C111.333 27.7267 111.466 27.14 111.466 26.46ZM121.106 25C121.106 23.6267 121.413 22.4 122.026 21.32C122.653 20.2267 123.5 19.38 124.566 18.78C125.646 18.1667 126.853 17.86 128.186 17.86C129.746 17.86 131.113 18.26 132.286 19.06C133.46 19.86 134.28 20.9667 134.746 22.38H131.526C131.206 21.7133 130.753 21.2133 130.166 20.88C129.593 20.5467 128.926 20.38 128.166 20.38C127.353 20.38 126.626 20.5733 125.986 20.96C125.36 21.3333 124.866 21.8667 124.506 22.56C124.16 23.2533 123.986 24.0667 123.986 25C123.986 25.92 124.16 26.7333 124.506 27.44C124.866 28.1333 125.36 28.6733 125.986 29.06C126.626 29.4333 127.353 29.62 128.166 29.62C128.926 29.62 129.593 29.4533 130.166 29.12C130.753 28.7733 131.206 28.2667 131.526 27.6H134.746C134.28 29.0267 133.46 30.14 132.286 30.94C131.126 31.7267 129.76 32.12 128.186 32.12C126.853 32.12 125.646 31.82 124.566 31.22C123.5 30.6067 122.653 29.76 122.026 28.68C121.413 27.6 121.106 26.3733 121.106 25ZM149.678 18.04L144.558 32H141.158L136.038 18.04H139.038L142.878 29.14L146.698 18.04H149.678Z" fill="white"/>
</svg>
