<svg width="50" height="50" viewBox="0 0 50 50" fill="none" xmlns="http://www.w3.org/2000/svg">
<path d="M4.6875 6.25C2.09961 6.25 0 8.34961 0 10.9375C0 12.4121 0.693359 13.7988 1.875 14.6875L23.125 30.625C24.2383 31.4551 25.7617 31.4551 26.875 30.625L48.125 14.6875C49.3066 13.7988 50 12.4121 50 10.9375C50 8.34961 47.9004 6.25 45.3125 6.25H4.6875ZM0 17.1875V37.5C0 40.9473 2.80273 43.75 6.25 43.75H43.75C47.1973 43.75 50 40.9473 50 37.5V17.1875L28.75 33.125C26.5234 34.7949 23.4766 34.7949 21.25 33.125L0 17.1875Z" fill="#76CFFF"/>
</svg>
