<svg width="440" height="124" viewBox="0 0 440 124" fill="none" xmlns="http://www.w3.org/2000/svg">
<path d="M208.606 84.1C208.246 83.4067 207.746 82.8867 207.106 82.54C206.466 82.18 205.726 82 204.886 82C203.966 82 203.146 82.2067 202.426 82.62C201.706 83.0333 201.139 83.62 200.726 84.38C200.326 85.14 200.126 86.02 200.126 87.02C200.126 88.02 200.326 88.9067 200.726 89.68C201.139 90.44 201.706 91.0267 202.426 91.44C203.146 91.8533 203.966 92.06 204.886 92.06C206.126 92.06 207.133 91.7133 207.906 91.02C208.679 90.3267 209.153 89.3867 209.326 88.2H204.106V86.38H211.766V88.16C211.619 89.24 211.233 90.2333 210.606 91.14C209.993 92.0467 209.186 92.7733 208.186 93.32C207.199 93.8533 206.099 94.12 204.886 94.12C203.579 94.12 202.386 93.82 201.306 93.22C200.226 92.6067 199.366 91.76 198.726 90.68C198.099 89.6 197.786 88.38 197.786 87.02C197.786 85.66 198.099 84.44 198.726 83.36C199.366 82.28 200.226 81.44 201.306 80.84C202.399 80.2267 203.593 79.92 204.886 79.92C206.366 79.92 207.679 80.2867 208.826 81.02C209.986 81.74 210.826 82.7667 211.346 84.1H208.606ZM223.995 82.98V94H221.715V92.7C221.355 93.1533 220.881 93.5133 220.295 93.78C219.721 94.0333 219.108 94.16 218.455 94.16C217.588 94.16 216.808 93.98 216.115 93.62C215.435 93.26 214.895 92.7267 214.495 92.02C214.108 91.3133 213.915 90.46 213.915 89.46V82.98H216.175V89.12C216.175 90.1067 216.421 90.8667 216.915 91.4C217.408 91.92 218.081 92.18 218.935 92.18C219.788 92.18 220.461 91.92 220.955 91.4C221.461 90.8667 221.715 90.1067 221.715 89.12V82.98H223.995ZM228.163 81.52C227.75 81.52 227.403 81.38 227.123 81.1C226.843 80.82 226.703 80.4733 226.703 80.06C226.703 79.6467 226.843 79.3 227.123 79.02C227.403 78.74 227.75 78.6 228.163 78.6C228.563 78.6 228.903 78.74 229.183 79.02C229.463 79.3 229.603 79.6467 229.603 80.06C229.603 80.4733 229.463 80.82 229.183 81.1C228.903 81.38 228.563 81.52 228.163 81.52ZM229.283 82.98V94H227.003V82.98H229.283ZM234.556 79.2V94H232.276V79.2H234.556ZM243.25 82.8C244.09 82.8 244.836 82.98 245.49 83.34C246.156 83.7 246.676 84.2333 247.05 84.94C247.436 85.6467 247.63 86.5 247.63 87.5V94H245.37V87.84C245.37 86.8533 245.123 86.1 244.63 85.58C244.136 85.0467 243.463 84.78 242.61 84.78C241.756 84.78 241.076 85.0467 240.57 85.58C240.076 86.1 239.83 86.8533 239.83 87.84V94H237.55V79.2H239.83V84.26C240.216 83.7933 240.703 83.4333 241.29 83.18C241.89 82.9267 242.543 82.8 243.25 82.8ZM260.638 88.22C260.638 88.6333 260.611 89.0067 260.558 89.34H252.138C252.205 90.22 252.531 90.9267 253.118 91.46C253.705 91.9933 254.425 92.26 255.278 92.26C256.505 92.26 257.371 91.7467 257.878 90.72H260.338C260.005 91.7333 259.398 92.5667 258.518 93.22C257.651 93.86 256.571 94.18 255.278 94.18C254.225 94.18 253.278 93.9467 252.438 93.48C251.611 93 250.958 92.3333 250.478 91.48C250.011 90.6133 249.778 89.6133 249.778 88.48C249.778 87.3467 250.005 86.3533 250.458 85.5C250.925 84.6333 251.571 83.9667 252.398 83.5C253.238 83.0333 254.198 82.8 255.278 82.8C256.318 82.8 257.245 83.0267 258.058 83.48C258.871 83.9333 259.505 84.5733 259.958 85.4C260.411 86.2133 260.638 87.1533 260.638 88.22ZM258.258 87.5C258.245 86.66 257.945 85.9867 257.358 85.48C256.771 84.9733 256.045 84.72 255.178 84.72C254.391 84.72 253.718 84.9733 253.158 85.48C252.598 85.9733 252.265 86.6467 252.158 87.5H258.258ZM265.162 84.58C265.495 84.02 265.935 83.5867 266.482 83.28C267.042 82.96 267.702 82.8 268.462 82.8V85.16H267.882C266.988 85.16 266.308 85.3867 265.842 85.84C265.388 86.2933 265.162 87.08 265.162 88.2V94H262.882V82.98H265.162V84.58ZM283.898 82.8C284.764 82.8 285.538 82.98 286.218 83.34C286.911 83.7 287.451 84.2333 287.838 84.94C288.238 85.6467 288.438 86.5 288.438 87.5V94H286.178V87.84C286.178 86.8533 285.931 86.1 285.438 85.58C284.944 85.0467 284.271 84.78 283.418 84.78C282.564 84.78 281.884 85.0467 281.378 85.58C280.884 86.1 280.638 86.8533 280.638 87.84V94H278.378V87.84C278.378 86.8533 278.131 86.1 277.638 85.58C277.144 85.0467 276.471 84.78 275.618 84.78C274.764 84.78 274.084 85.0467 273.578 85.58C273.084 86.1 272.838 86.8533 272.838 87.84V94H270.558V82.98H272.838V84.24C273.211 83.7867 273.684 83.4333 274.258 83.18C274.831 82.9267 275.444 82.8 276.098 82.8C276.978 82.8 277.764 82.9867 278.458 83.36C279.151 83.7333 279.684 84.2733 280.058 84.98C280.391 84.3133 280.911 83.7867 281.618 83.4C282.324 83 283.084 82.8 283.898 82.8ZM301.439 88.22C301.439 88.6333 301.412 89.0067 301.359 89.34H292.939C293.005 90.22 293.332 90.9267 293.919 91.46C294.505 91.9933 295.225 92.26 296.079 92.26C297.305 92.26 298.172 91.7467 298.679 90.72H301.139C300.805 91.7333 300.199 92.5667 299.319 93.22C298.452 93.86 297.372 94.18 296.079 94.18C295.025 94.18 294.079 93.9467 293.239 93.48C292.412 93 291.759 92.3333 291.279 91.48C290.812 90.6133 290.579 89.6133 290.579 88.48C290.579 87.3467 290.805 86.3533 291.259 85.5C291.725 84.6333 292.372 83.9667 293.199 83.5C294.039 83.0333 294.999 82.8 296.079 82.8C297.119 82.8 298.045 83.0267 298.859 83.48C299.672 83.9333 300.305 84.5733 300.759 85.4C301.212 86.2133 301.439 87.1533 301.439 88.22ZM299.059 87.5C299.045 86.66 298.745 85.9867 298.159 85.48C297.572 84.9733 296.845 84.72 295.979 84.72C295.192 84.72 294.519 84.9733 293.959 85.48C293.399 85.9733 293.065 86.6467 292.959 87.5H299.059ZM313.458 94.14C312.525 94.14 311.685 93.98 310.938 93.66C310.191 93.3267 309.605 92.86 309.178 92.26C308.751 91.66 308.538 90.96 308.538 90.16H310.978C311.031 90.76 311.265 91.2533 311.678 91.64C312.105 92.0267 312.698 92.22 313.458 92.22C314.245 92.22 314.858 92.0333 315.298 91.66C315.738 91.2733 315.958 90.78 315.958 90.18C315.958 89.7133 315.818 89.3333 315.538 89.04C315.271 88.7467 314.931 88.52 314.518 88.36C314.118 88.2 313.558 88.0267 312.838 87.84C311.931 87.6 311.191 87.36 310.618 87.12C310.058 86.8667 309.578 86.48 309.178 85.96C308.778 85.44 308.578 84.7467 308.578 83.88C308.578 83.08 308.778 82.38 309.178 81.78C309.578 81.18 310.138 80.72 310.858 80.4C311.578 80.08 312.411 79.92 313.358 79.92C314.705 79.92 315.805 80.26 316.658 80.94C317.525 81.6067 318.005 82.5267 318.098 83.7H315.578C315.538 83.1933 315.298 82.76 314.858 82.4C314.418 82.04 313.838 81.86 313.118 81.86C312.465 81.86 311.931 82.0267 311.518 82.36C311.105 82.6933 310.898 83.1733 310.898 83.8C310.898 84.2267 311.025 84.58 311.278 84.86C311.545 85.1267 311.878 85.34 312.278 85.5C312.678 85.66 313.225 85.8333 313.918 86.02C314.838 86.2733 315.585 86.5267 316.158 86.78C316.745 87.0333 317.238 87.4267 317.638 87.96C318.051 88.48 318.258 89.18 318.258 90.06C318.258 90.7667 318.065 91.4333 317.678 92.06C317.305 92.6867 316.751 93.1933 316.018 93.58C315.298 93.9533 314.445 94.14 313.458 94.14ZM321.868 94.14C321.455 94.14 321.108 94 320.828 93.72C320.548 93.44 320.408 93.0933 320.408 92.68C320.408 92.2667 320.548 91.92 320.828 91.64C321.108 91.36 321.455 91.22 321.868 91.22C322.268 91.22 322.608 91.36 322.888 91.64C323.168 91.92 323.308 92.2667 323.308 92.68C323.308 93.0933 323.168 93.44 322.888 93.72C322.608 94 322.268 94.14 321.868 94.14Z" fill="white"/>
<g filter="url(#filter0_d_19_98)">
<path d="M152.797 59H147.325L138.173 45.144V59H132.701V36.536H138.173L147.325 50.456V36.536H152.797V59ZM155.676 50.04C155.676 48.2053 156.017 46.5947 156.7 45.208C157.404 43.8213 158.353 42.7547 159.548 42.008C160.743 41.2613 162.076 40.888 163.548 40.888C164.807 40.888 165.905 41.144 166.844 41.656C167.804 42.168 168.54 42.84 169.052 43.672V41.144H174.524V59H169.052V56.472C168.519 57.304 167.772 57.976 166.812 58.488C165.873 59 164.775 59.256 163.516 59.256C162.065 59.256 160.743 58.8827 159.548 58.136C158.353 57.368 157.404 56.2907 156.7 54.904C156.017 53.496 155.676 51.8747 155.676 50.04ZM169.052 50.072C169.052 48.7067 168.668 47.6293 167.9 46.84C167.153 46.0507 166.236 45.656 165.148 45.656C164.06 45.656 163.132 46.0507 162.364 46.84C161.617 47.608 161.244 48.6747 161.244 50.04C161.244 51.4053 161.617 52.4933 162.364 53.304C163.132 54.0933 164.06 54.488 165.148 54.488C166.236 54.488 167.153 54.0933 167.9 53.304C168.668 52.5147 169.052 51.4373 169.052 50.072ZM181.235 39.288C180.275 39.288 179.485 39.0107 178.867 38.456C178.269 37.88 177.971 37.176 177.971 36.344C177.971 35.4907 178.269 34.7867 178.867 34.232C179.485 33.656 180.275 33.368 181.235 33.368C182.173 33.368 182.941 33.656 183.539 34.232C184.157 34.7867 184.467 35.4907 184.467 36.344C184.467 37.176 184.157 37.88 183.539 38.456C182.941 39.0107 182.173 39.288 181.235 39.288ZM183.955 41.144V59H178.483V41.144H183.955ZM198.8 40.952C200.891 40.952 202.555 41.6347 203.792 43C205.051 44.344 205.68 46.2 205.68 48.568V59H200.24V49.304C200.24 48.1093 199.931 47.1813 199.312 46.52C198.693 45.8587 197.861 45.528 196.816 45.528C195.771 45.528 194.939 45.8587 194.32 46.52C193.701 47.1813 193.392 48.1093 193.392 49.304V59H187.92V41.144H193.392V43.512C193.947 42.7227 194.693 42.104 195.632 41.656C196.571 41.1867 197.627 40.952 198.8 40.952ZM241.704 36.536V59H236.232V45.528L231.208 59H226.792L221.736 45.496V59H216.264V36.536H222.728L229.032 52.088L235.272 36.536H241.704ZM244.551 50.04C244.551 48.2053 244.892 46.5947 245.575 45.208C246.279 43.8213 247.228 42.7547 248.423 42.008C249.618 41.2613 250.951 40.888 252.423 40.888C253.682 40.888 254.78 41.144 255.719 41.656C256.679 42.168 257.415 42.84 257.927 43.672V41.144H263.399V59H257.927V56.472C257.394 57.304 256.647 57.976 255.687 58.488C254.748 59 253.65 59.256 252.391 59.256C250.94 59.256 249.618 58.8827 248.423 58.136C247.228 57.368 246.279 56.2907 245.575 54.904C244.892 53.496 244.551 51.8747 244.551 50.04ZM257.927 50.072C257.927 48.7067 257.543 47.6293 256.775 46.84C256.028 46.0507 255.111 45.656 254.023 45.656C252.935 45.656 252.007 46.0507 251.239 46.84C250.492 47.608 250.119 48.6747 250.119 50.04C250.119 51.4053 250.492 52.4933 251.239 53.304C252.007 54.0933 252.935 54.488 254.023 54.488C255.111 54.488 256.028 54.0933 256.775 53.304C257.543 52.5147 257.927 51.4373 257.927 50.072ZM278.238 40.952C280.328 40.952 281.992 41.6347 283.23 43C284.488 44.344 285.118 46.2 285.118 48.568V59H279.678V49.304C279.678 48.1093 279.368 47.1813 278.75 46.52C278.131 45.8587 277.299 45.528 276.254 45.528C275.208 45.528 274.376 45.8587 273.758 46.52C273.139 47.1813 272.83 48.1093 272.83 49.304V59H267.358V41.144H272.83V43.512C273.384 42.7227 274.131 42.104 275.07 41.656C276.008 41.1867 277.064 40.952 278.238 40.952ZM291.672 39.288C290.712 39.288 289.923 39.0107 289.304 38.456C288.707 37.88 288.408 37.176 288.408 36.344C288.408 35.4907 288.707 34.7867 289.304 34.232C289.923 33.656 290.712 33.368 291.672 33.368C292.611 33.368 293.379 33.656 293.976 34.232C294.595 34.7867 294.904 35.4907 294.904 36.344C294.904 37.176 294.595 37.88 293.976 38.456C293.379 39.0107 292.611 39.288 291.672 39.288ZM294.392 41.144V59H288.92V41.144H294.392ZM308.31 54.36V59H305.526C303.542 59 301.995 58.52 300.886 57.56C299.776 56.5787 299.222 54.9893 299.222 52.792V45.688H297.046V41.144H299.222V36.792H304.694V41.144H308.278V45.688H304.694V52.856C304.694 53.3893 304.822 53.7733 305.078 54.008C305.334 54.2427 305.76 54.36 306.358 54.36H308.31ZM328.19 49.784C328.19 50.296 328.158 50.8293 328.094 51.384H315.71C315.795 52.4933 316.147 53.3467 316.766 53.944C317.406 54.52 318.184 54.808 319.102 54.808C320.467 54.808 321.416 54.232 321.95 53.08H327.774C327.475 54.2533 326.931 55.3093 326.142 56.248C325.374 57.1867 324.403 57.9227 323.23 58.456C322.056 58.9893 320.744 59.256 319.294 59.256C317.544 59.256 315.987 58.8827 314.622 58.136C313.256 57.3893 312.19 56.3227 311.422 54.936C310.654 53.5493 310.27 51.928 310.27 50.072C310.27 48.216 310.643 46.5947 311.39 45.208C312.158 43.8213 313.224 42.7547 314.59 42.008C315.955 41.2613 317.523 40.888 319.294 40.888C321.022 40.888 322.558 41.2507 323.902 41.976C325.246 42.7013 326.291 43.736 327.038 45.08C327.806 46.424 328.19 47.992 328.19 49.784ZM322.59 48.344C322.59 47.4053 322.27 46.6587 321.63 46.104C320.99 45.5493 320.19 45.272 319.23 45.272C318.312 45.272 317.534 45.5387 316.894 46.072C316.275 46.6053 315.891 47.3627 315.742 48.344H322.59ZM341.956 40.952C344.047 40.952 345.711 41.6347 346.948 43C348.207 44.344 348.836 46.2 348.836 48.568V59H343.396V49.304C343.396 48.1093 343.087 47.1813 342.468 46.52C341.85 45.8587 341.018 45.528 339.972 45.528C338.927 45.528 338.095 45.8587 337.476 46.52C336.858 47.1813 336.548 48.1093 336.548 49.304V59H331.076V41.144H336.548V43.512C337.103 42.7227 337.85 42.104 338.788 41.656C339.727 41.1867 340.783 40.952 341.956 40.952ZM351.551 50.072C351.551 48.216 351.924 46.5947 352.671 45.208C353.439 43.8213 354.495 42.7547 355.839 42.008C357.204 41.2613 358.762 40.888 360.511 40.888C362.751 40.888 364.618 41.4747 366.111 42.648C367.626 43.8213 368.618 45.4747 369.087 47.608H363.263C362.772 46.2427 361.823 45.56 360.415 45.56C359.412 45.56 358.612 45.9547 358.015 46.744C357.418 47.512 357.119 48.6213 357.119 50.072C357.119 51.5227 357.418 52.6427 358.015 53.432C358.612 54.2 359.412 54.584 360.415 54.584C361.823 54.584 362.772 53.9013 363.263 52.536H369.087C368.618 54.6267 367.626 56.2693 366.111 57.464C364.596 58.6587 362.73 59.256 360.511 59.256C358.762 59.256 357.204 58.8827 355.839 58.136C354.495 57.3893 353.439 56.3227 352.671 54.936C351.924 53.5493 351.551 51.928 351.551 50.072ZM388.846 49.784C388.846 50.296 388.814 50.8293 388.75 51.384H376.366C376.451 52.4933 376.803 53.3467 377.422 53.944C378.062 54.52 378.841 54.808 379.758 54.808C381.123 54.808 382.073 54.232 382.606 53.08H388.43C388.131 54.2533 387.587 55.3093 386.798 56.248C386.03 57.1867 385.059 57.9227 383.886 58.456C382.713 58.9893 381.401 59.256 379.95 59.256C378.201 59.256 376.643 58.8827 375.278 58.136C373.913 57.3893 372.846 56.3227 372.078 54.936C371.31 53.5493 370.926 51.928 370.926 50.072C370.926 48.216 371.299 46.5947 372.046 45.208C372.814 43.8213 373.881 42.7547 375.246 42.008C376.611 41.2613 378.179 40.888 379.95 40.888C381.678 40.888 383.214 41.2507 384.558 41.976C385.902 42.7013 386.947 43.736 387.694 45.08C388.462 46.424 388.846 47.992 388.846 49.784ZM383.246 48.344C383.246 47.4053 382.926 46.6587 382.286 46.104C381.646 45.5493 380.846 45.272 379.886 45.272C378.969 45.272 378.19 45.5387 377.55 46.072C376.931 46.6053 376.547 47.3627 376.398 48.344H383.246Z" fill="#64C6FB"/>
</g>
<g filter="url(#filter1_d_19_98)">
<path fill-rule="evenodd" clip-rule="evenodd" d="M76.7034 102.274C76.7034 104.039 76.7034 104.922 76.146 105.197C75.5886 105.472 74.8881 104.935 73.487 103.862L47.8278 84.2008C47.0584 83.6113 46.6737 83.3165 46.4672 82.898C46.2606 82.4795 46.2606 81.9949 46.2606 81.0257V49.8315C46.2606 48.0664 46.2606 47.1838 46.818 46.9087C47.3754 46.6336 48.076 47.1704 49.4771 48.2439L75.9198 68.5053C76.3045 68.8 76.4969 68.9474 76.6001 69.1567C76.7034 69.3659 76.7034 69.6082 76.7034 70.0928V102.274ZM82.7034 102.274C82.7034 104.039 82.7034 104.922 83.2608 105.197C83.8182 105.472 84.5188 104.935 85.9198 103.862L111.579 84.2008C112.348 83.6113 112.733 83.3165 112.94 82.898C113.146 82.4795 113.146 81.9949 113.146 81.0257V49.8315C113.146 48.0664 113.146 47.1838 112.589 46.9087C112.031 46.6336 111.331 47.1704 109.93 48.2439L83.487 68.5053C83.1023 68.8 82.91 68.9474 82.8067 69.1567C82.7034 69.3659 82.7034 69.6082 82.7034 70.0928V102.274ZM108.608 38.5227C109.56 39.252 110.036 39.6167 110.036 40.1103C110.036 40.6038 109.56 40.9685 108.608 41.6978L80.9198 62.9135C80.3349 63.3617 80.0425 63.5857 79.7034 63.5857C79.3643 63.5857 79.0719 63.3617 78.487 62.9135L50.7987 41.6978C49.8469 40.9685 49.371 40.6038 49.371 40.1103C49.371 39.6167 49.8469 39.252 50.7987 38.5227L77.2706 18.2391L77.2706 18.2391C78.4404 17.3428 79.0253 16.8946 79.7034 16.8946C80.3816 16.8946 80.9665 17.3428 82.1363 18.2391L108.608 38.5227Z" fill="#71B5DA"/>
<path d="M47.8278 84.2008L47.5237 84.5977L47.5237 84.5977L47.8278 84.2008ZM46.4672 82.898L46.0188 83.1193L46.0188 83.1193L46.4672 82.898ZM111.579 84.2008L111.275 83.8039L111.275 83.8039L111.579 84.2008ZM77.2706 18.2391L76.9917 17.8241C76.9831 17.8299 76.9747 17.8359 76.9664 17.8422L77.2706 18.2391ZM77.2706 18.2391L77.5494 18.6541C77.558 18.6483 77.5665 18.6423 77.5747 18.636L77.2706 18.2391ZM82.1363 18.2391L81.8322 18.636L81.8322 18.636L82.1363 18.2391ZM50.7987 41.6978L50.4946 42.0947L50.7987 41.6978ZM50.7987 38.5227L51.1028 38.9196L50.7987 38.5227ZM49.371 40.1103L48.871 40.1103L49.371 40.1103ZM108.608 41.6978L108.304 41.3009L108.608 41.6978ZM108.608 38.5227L108.304 38.9196L108.608 38.5227ZM110.036 40.1103L110.536 40.1103L110.036 40.1103ZM83.487 68.5053L83.1829 68.1084L83.487 68.5053ZM82.8067 69.1567L83.2551 69.378L82.8067 69.1567ZM112.589 46.9087L112.368 47.3571L112.589 46.9087ZM75.9198 68.5053L75.6157 68.9022L75.9198 68.5053ZM76.6001 69.1567L76.1518 69.378L76.6001 69.1567ZM46.818 46.9087L46.5967 46.4604L46.818 46.9087ZM85.9198 103.862L85.6157 103.465L85.9198 103.862ZM83.2608 105.197L83.4821 104.749L83.2608 105.197ZM80.9198 62.9135L80.6157 62.5166L80.9198 62.9135ZM78.487 62.9135L78.7911 62.5166L78.487 62.9135ZM79.7034 63.5857L79.7034 63.0857L79.7034 63.5857ZM76.146 105.197L75.9247 104.749L76.146 105.197ZM47.5237 84.5977L73.1829 104.259L73.7911 103.465L48.1319 83.8039L47.5237 84.5977ZM46.0188 83.1193C46.2891 83.667 46.7936 84.0382 47.5237 84.5977L48.1319 83.8039C47.3232 83.1843 47.0583 82.966 46.9155 82.6767L46.0188 83.1193ZM45.7606 81.0257C45.7606 81.9454 45.7485 82.5716 46.0188 83.1193L46.9155 82.6767C46.7727 82.3874 46.7606 82.0444 46.7606 81.0257H45.7606ZM45.7606 49.8315V81.0257H46.7606V49.8315H45.7606ZM76.224 68.1084L49.7812 47.8471L49.1729 48.6408L75.6157 68.9022L76.224 68.1084ZM77.2034 102.274V70.0928H76.2034V102.274H77.2034ZM86.224 104.259L111.883 84.5977L111.275 83.8039L85.6157 103.465L86.224 104.259ZM111.883 84.5977C112.613 84.0383 113.118 83.667 113.388 83.1193L112.491 82.6767C112.348 82.966 112.084 83.1843 111.275 83.8039L111.883 84.5977ZM113.388 83.1193C113.658 82.5716 113.646 81.9454 113.646 81.0257H112.646C112.646 82.0444 112.634 82.3874 112.491 82.6767L113.388 83.1193ZM113.646 81.0257V49.8315H112.646V81.0257H113.646ZM109.626 47.8471L83.1829 68.1084L83.7911 68.9022L110.234 48.6408L109.626 47.8471ZM82.2034 70.0928V102.274H83.2034V70.0928H82.2034ZM81.224 63.3104L108.912 42.0947L108.304 41.3009L80.6157 62.5166L81.224 63.3104ZM50.4946 42.0947L78.1829 63.3104L78.7911 62.5166L51.1028 41.3009L50.4946 42.0947ZM76.9664 17.8422L50.4946 38.1258L51.1028 38.9196L77.5747 18.636L76.9664 17.8422ZM76.9917 17.8241L76.9917 17.8241L77.5494 18.6541L77.5494 18.6541L76.9917 17.8241ZM79.7034 16.3946C79.2414 16.3946 78.836 16.5514 78.416 16.8008C78.0075 17.0435 77.5418 17.4014 76.9665 17.8422L77.5747 18.636C78.1691 18.1805 78.5808 17.8661 78.9267 17.6606C79.2612 17.4619 79.4873 17.3946 79.7034 17.3946V16.3946ZM82.4404 17.8422C81.865 17.4014 81.3993 17.0435 80.9908 16.8009C80.5709 16.5514 80.1655 16.3946 79.7034 16.3946V17.3946C79.9195 17.3946 80.1456 17.4619 80.4801 17.6606C80.826 17.8661 81.2377 18.1805 81.8322 18.636L82.4404 17.8422ZM108.912 38.1258L82.4404 17.8422L81.8322 18.636L108.304 38.9196L108.912 38.1258ZM51.1028 41.3009C50.6143 40.9266 50.2926 40.6785 50.0859 40.4666C49.8882 40.2638 49.871 40.1685 49.871 40.1103L48.871 40.1103C48.871 40.5456 49.0917 40.8794 49.37 41.1647C49.6392 41.4408 50.0313 41.7397 50.4946 42.0947L51.1028 41.3009ZM50.4946 38.1258C50.0313 38.4808 49.6392 38.7797 49.37 39.0558C49.0917 39.3412 48.871 39.675 48.871 40.1103L49.871 40.1103C49.871 40.052 49.8882 39.9567 50.0859 39.754C50.2926 39.5421 50.6143 39.2939 51.1028 38.9196L50.4946 38.1258ZM108.912 42.0947C109.376 41.7397 109.768 41.4408 110.037 41.1647C110.315 40.8794 110.536 40.5456 110.536 40.1103L109.536 40.1103C109.536 40.1685 109.519 40.2638 109.321 40.4666C109.114 40.6785 108.792 40.9266 108.304 41.3009L108.912 42.0947ZM108.304 38.9196C108.792 39.2939 109.114 39.542 109.321 39.754C109.519 39.9567 109.536 40.052 109.536 40.1103L110.536 40.1103C110.536 39.675 110.315 39.3412 110.037 39.0558C109.768 38.7797 109.376 38.4808 108.912 38.1258L108.304 38.9196ZM83.1829 68.1084C82.8375 68.3731 82.5254 68.5969 82.3583 68.9354L83.2551 69.378C83.2946 69.2979 83.3671 69.227 83.7911 68.9022L83.1829 68.1084ZM83.2034 70.0928C83.2034 69.5588 83.2155 69.458 83.2551 69.378L82.3583 68.9354C82.1913 69.2738 82.2034 69.6577 82.2034 70.0928H83.2034ZM113.646 49.8315C113.646 48.9659 113.648 48.2595 113.571 47.7389C113.496 47.2228 113.32 46.7121 112.81 46.4604L112.368 47.3571C112.415 47.3805 112.518 47.4486 112.582 47.8838C112.645 48.3145 112.646 48.9319 112.646 49.8315H113.646ZM110.234 48.6408C110.948 48.0937 111.439 47.7192 111.819 47.5073C112.203 47.2932 112.32 47.3337 112.368 47.3571L112.81 46.4604C112.3 46.2087 111.788 46.3799 111.332 46.6338C110.873 46.8899 110.313 47.3206 109.626 47.8471L110.234 48.6408ZM75.6157 68.9022C76.0397 69.227 76.1123 69.2979 76.1518 69.378L77.0485 68.9354C76.8815 68.5969 76.5694 68.3731 76.224 68.1084L75.6157 68.9022ZM77.2034 70.0928C77.2034 69.6577 77.2155 69.2738 77.0485 68.9354L76.1518 69.378C76.1913 69.458 76.2034 69.5588 76.2034 70.0928H77.2034ZM46.7606 49.8315C46.7606 48.9319 46.7619 48.3145 46.825 47.8838C46.8888 47.4486 46.9919 47.3805 47.0393 47.3571L46.5967 46.4604C46.0868 46.7121 45.9112 47.2228 45.8356 47.7389C45.7593 48.2595 45.7606 48.9659 45.7606 49.8315H46.7606ZM49.7812 47.8471C49.0941 47.3206 48.5342 46.8899 48.0745 46.6338C47.6189 46.3799 47.1067 46.2087 46.5967 46.4604L47.0393 47.3571C47.0868 47.3337 47.2035 47.2932 47.5878 47.5073C47.968 47.7192 48.4589 48.0937 49.1729 48.6408L49.7812 47.8471ZM85.6157 103.465C84.9017 104.012 84.4108 104.386 84.0306 104.598C83.6463 104.812 83.5296 104.772 83.4821 104.749L83.0395 105.645C83.5495 105.897 84.0617 105.726 84.5173 105.472C84.977 105.216 85.5369 104.785 86.224 104.259L85.6157 103.465ZM82.2034 102.274C82.2034 103.14 82.2021 103.846 82.2784 104.367C82.354 104.883 82.5296 105.394 83.0395 105.645L83.4821 104.749C83.4347 104.725 83.3316 104.657 83.2678 104.222C83.2047 103.791 83.2034 103.174 83.2034 102.274H82.2034ZM80.6157 62.5166C80.3137 62.748 80.1214 62.8944 79.9641 62.9878C79.8182 63.0745 79.75 63.0857 79.7034 63.0857L79.7034 64.0857C79.9959 64.0857 80.2435 63.985 80.4748 63.8476C80.6947 63.7169 80.941 63.5271 81.224 63.3104L80.6157 62.5166ZM78.1829 63.3104C78.4658 63.5271 78.7121 63.7169 78.932 63.8476C79.1634 63.985 79.4109 64.0857 79.7034 64.0857L79.7034 63.0857C79.6568 63.0857 79.5886 63.0745 79.4428 62.9878C79.2854 62.8944 79.0931 62.748 78.7911 62.5166L78.1829 63.3104ZM73.1829 104.259C73.8699 104.785 74.4298 105.216 74.8895 105.472C75.3452 105.726 75.8574 105.897 76.3673 105.645L75.9247 104.749C75.8773 104.772 75.7605 104.812 75.3763 104.598C74.996 104.386 74.5051 104.012 73.7911 103.465L73.1829 104.259ZM76.2034 102.274C76.2034 103.174 76.2021 103.791 76.139 104.222C76.0753 104.657 75.9722 104.725 75.9247 104.749L76.3673 105.645C76.8773 105.394 77.0529 104.883 77.1285 104.367C77.2047 103.846 77.2034 103.14 77.2034 102.274H76.2034Z" fill="#71B5DA"/>
</g>
<path fill-rule="evenodd" clip-rule="evenodd" d="M78.5678 101.274C78.5678 103.039 78.5678 103.922 78.0104 104.197C77.453 104.472 76.7524 103.935 75.3514 102.862L49.6921 83.2008C48.9228 82.6113 48.5381 82.3165 48.3316 81.898C48.125 81.4795 48.125 80.9949 48.125 80.0257V48.8315C48.125 47.0664 48.125 46.1838 48.6824 45.9087C49.2398 45.6336 49.9403 46.1704 51.3414 47.2439L77.7842 67.5053C78.1689 67.8 78.3612 67.9474 78.4645 68.1567C78.5678 68.3659 78.5678 68.6082 78.5678 69.0928V101.274ZM84.5678 101.274C84.5678 103.039 84.5678 103.922 85.1252 104.197C85.6826 104.472 86.3831 103.935 87.7842 102.862L113.443 83.2008C114.213 82.6113 114.597 82.3165 114.804 81.898C115.011 81.4795 115.011 80.9949 115.011 80.0257V48.8315C115.011 47.0664 115.011 46.1838 114.453 45.9087C113.896 45.6336 113.195 46.1704 111.794 47.2439L85.3514 67.5053C84.9667 67.8 84.7744 67.9474 84.6711 68.1567C84.5678 68.3659 84.5678 68.6082 84.5678 69.0928V101.274ZM110.472 37.5227C111.424 38.252 111.9 38.6167 111.9 39.1103C111.9 39.6038 111.424 39.9685 110.472 40.6978L82.7842 61.9135C82.1993 62.3617 81.9069 62.5857 81.5678 62.5857C81.2287 62.5857 80.9363 62.3617 80.3514 61.9135L52.6631 40.6978C51.7113 39.9685 51.2354 39.6038 51.2354 39.1103C51.2354 38.6167 51.7113 38.252 52.6631 37.5227L79.1349 17.2391L79.135 17.2391C80.3048 16.3428 80.8897 15.8946 81.5678 15.8946C82.2459 15.8946 82.8308 16.3428 84.0007 17.2391L110.472 37.5227Z" fill="#ACE2FF"/>
<path d="M49.6921 83.2008L49.388 83.5977L49.388 83.5977L49.6921 83.2008ZM48.3316 81.898L47.8832 82.1193L47.8832 82.1193L48.3316 81.898ZM113.443 83.2008L113.139 82.8039L113.139 82.8039L113.443 83.2008ZM79.1349 17.2391L78.8561 16.8241C78.8475 16.8299 78.8391 16.8359 78.8308 16.8422L79.1349 17.2391ZM79.135 17.2391L79.4138 17.6541C79.4224 17.6483 79.4308 17.6423 79.4391 17.636L79.135 17.2391ZM84.0007 17.2391L83.6965 17.636L83.6965 17.636L84.0007 17.2391ZM52.6631 40.6978L52.359 41.0947L52.6631 40.6978ZM52.6631 37.5227L52.9672 37.9196L52.6631 37.5227ZM51.2354 39.1103L50.7354 39.1103L51.2354 39.1103ZM110.472 40.6978L110.168 40.3009L110.472 40.6978ZM110.472 37.5227L110.168 37.9196L110.472 37.5227ZM111.9 39.1103L112.4 39.1103L111.9 39.1103ZM85.3514 67.5053L85.0473 67.1084L85.3514 67.5053ZM84.6711 68.1567L85.1194 68.378L84.6711 68.1567ZM114.453 45.9087L114.232 46.3571L114.453 45.9087ZM77.7842 67.5053L77.4801 67.9022L77.7842 67.5053ZM78.4645 68.1567L78.0162 68.378L78.4645 68.1567ZM48.6824 45.9087L48.4611 45.4604L48.6824 45.9087ZM87.7842 102.862L87.4801 102.465L87.7842 102.862ZM85.1252 104.197L85.3465 103.749L85.1252 104.197ZM82.7842 61.9135L82.4801 61.5166L82.7842 61.9135ZM80.3514 61.9135L80.6555 61.5166L80.3514 61.9135ZM81.5678 62.5857L81.5678 62.0857L81.5678 62.5857ZM78.0104 104.197L77.7891 103.749L78.0104 104.197ZM49.388 83.5977L75.0473 103.259L75.6555 102.465L49.9962 82.8039L49.388 83.5977ZM47.8832 82.1193C48.1535 82.667 48.658 83.0382 49.388 83.5977L49.9962 82.8039C49.1876 82.1843 48.9227 81.966 48.7799 81.6767L47.8832 82.1193ZM47.625 80.0257C47.625 80.9454 47.6129 81.5716 47.8832 82.1193L48.7799 81.6767C48.6371 81.3874 48.625 81.0444 48.625 80.0257H47.625ZM47.625 48.8315V80.0257H48.625V48.8315H47.625ZM78.0883 67.1084L51.6455 46.8471L51.0373 47.6408L77.4801 67.9022L78.0883 67.1084ZM79.0678 101.274V69.0928H78.0678V101.274H79.0678ZM88.0883 103.259L113.748 83.5977L113.139 82.8039L87.4801 102.465L88.0883 103.259ZM113.748 83.5977C114.478 83.0383 114.982 82.667 115.252 82.1193L114.356 81.6767C114.213 81.966 113.948 82.1843 113.139 82.8039L113.748 83.5977ZM115.252 82.1193C115.523 81.5716 115.511 80.9454 115.511 80.0257H114.511C114.511 81.0444 114.498 81.3874 114.356 81.6767L115.252 82.1193ZM115.511 80.0257V48.8315H114.511V80.0257H115.511ZM111.49 46.8471L85.0473 67.1084L85.6555 67.9022L112.098 47.6408L111.49 46.8471ZM84.0678 69.0928V101.274H85.0678V69.0928H84.0678ZM83.0883 62.3104L110.777 41.0947L110.168 40.3009L82.4801 61.5166L83.0883 62.3104ZM52.359 41.0947L80.0473 62.3104L80.6555 61.5166L52.9672 40.3009L52.359 41.0947ZM78.8308 16.8422L52.359 37.1258L52.9672 37.9196L79.439 17.636L78.8308 16.8422ZM78.8561 16.8241L78.8561 16.8241L79.4138 17.6541L79.4138 17.6541L78.8561 16.8241ZM81.5678 15.3946C81.1058 15.3946 80.7003 15.5514 80.2804 15.8008C79.8719 16.0435 79.4062 16.4014 78.8308 16.8422L79.4391 17.636C80.0335 17.1805 80.4452 16.8661 80.7911 16.6606C81.1256 16.4619 81.3517 16.3946 81.5678 16.3946V15.3946ZM84.3048 16.8422C83.7294 16.4014 83.2637 16.0435 82.8552 15.8009C82.4352 15.5514 82.0298 15.3946 81.5678 15.3946V16.3946C81.7839 16.3946 82.01 16.4619 82.3445 16.6606C82.6904 16.8661 83.1021 17.1805 83.6965 17.636L84.3048 16.8422ZM110.777 37.1258L84.3048 16.8422L83.6965 17.636L110.168 37.9196L110.777 37.1258ZM52.9672 40.3009C52.4787 39.9266 52.1569 39.6785 51.9503 39.4666C51.7526 39.2638 51.7354 39.1685 51.7354 39.1103L50.7354 39.1103C50.7354 39.5456 50.9561 39.8794 51.2343 40.1647C51.5036 40.4408 51.8957 40.7397 52.359 41.0947L52.9672 40.3009ZM52.359 37.1258C51.8957 37.4808 51.5036 37.7797 51.2343 38.0558C50.9561 38.3412 50.7354 38.675 50.7354 39.1103L51.7354 39.1103C51.7354 39.052 51.7526 38.9567 51.9503 38.754C52.1569 38.5421 52.4787 38.2939 52.9672 37.9196L52.359 37.1258ZM110.777 41.0947C111.24 40.7397 111.632 40.4408 111.901 40.1647C112.179 39.8794 112.4 39.5456 112.4 39.1103L111.4 39.1103C111.4 39.1685 111.383 39.2638 111.185 39.4666C110.979 39.6785 110.657 39.9266 110.168 40.3009L110.777 41.0947ZM110.168 37.9196C110.657 38.2939 110.979 38.542 111.185 38.754C111.383 38.9567 111.4 39.052 111.4 39.1103L112.4 39.1103C112.4 38.675 112.179 38.3412 111.901 38.0558C111.632 37.7797 111.24 37.4808 110.777 37.1258L110.168 37.9196ZM85.0473 67.1084C84.7019 67.3731 84.3898 67.5969 84.2227 67.9354L85.1194 68.378C85.159 68.2979 85.2315 68.227 85.6555 67.9022L85.0473 67.1084ZM85.0678 69.0928C85.0678 68.5588 85.0799 68.458 85.1194 68.378L84.2227 67.9354C84.0557 68.2738 84.0678 68.6577 84.0678 69.0928H85.0678ZM115.511 48.8315C115.511 47.9659 115.512 47.2595 115.436 46.7389C115.36 46.2228 115.184 45.7121 114.674 45.4604L114.232 46.3571C114.279 46.3805 114.382 46.4486 114.446 46.8838C114.509 47.3145 114.511 47.9319 114.511 48.8315H115.511ZM112.098 47.6408C112.812 47.0937 113.303 46.7192 113.683 46.5073C114.068 46.2932 114.184 46.3337 114.232 46.3571L114.674 45.4604C114.165 45.2087 113.652 45.3799 113.197 45.6338C112.737 45.8899 112.177 46.3206 111.49 46.8471L112.098 47.6408ZM77.4801 67.9022C77.9041 68.227 77.9766 68.2979 78.0162 68.378L78.9129 67.9354C78.7458 67.5969 78.4337 67.3731 78.0883 67.1084L77.4801 67.9022ZM79.0678 69.0928C79.0678 68.6577 79.0799 68.2738 78.9129 67.9354L78.0162 68.378C78.0557 68.458 78.0678 68.5588 78.0678 69.0928H79.0678ZM48.625 48.8315C48.625 47.9319 48.6263 47.3145 48.6894 46.8838C48.7531 46.4486 48.8563 46.3805 48.9037 46.3571L48.4611 45.4604C47.9511 45.7121 47.7756 46.2228 47.7 46.7389C47.6237 47.2595 47.625 47.9659 47.625 48.8315H48.625ZM51.6455 46.8471C50.9585 46.3206 50.3986 45.8899 49.9389 45.6338C49.4833 45.3799 48.9711 45.2087 48.4611 45.4604L48.9037 46.3571C48.9511 46.3337 49.0679 46.2932 49.4522 46.5073C49.8324 46.7192 50.3233 47.0937 51.0373 47.6408L51.6455 46.8471ZM87.4801 102.465C86.7661 103.012 86.2752 103.386 85.895 103.598C85.5107 103.812 85.3939 103.772 85.3465 103.749L84.9039 104.645C85.4139 104.897 85.926 104.726 86.3817 104.472C86.8414 104.216 87.4013 103.785 88.0883 103.259L87.4801 102.465ZM84.0678 101.274C84.0678 102.14 84.0665 102.846 84.1427 103.367C84.2184 103.883 84.3939 104.394 84.9039 104.645L85.3465 103.749C85.299 103.725 85.1959 103.657 85.1322 103.222C85.0691 102.791 85.0678 102.174 85.0678 101.274H84.0678ZM82.4801 61.5166C82.1781 61.748 81.9858 61.8944 81.8285 61.9878C81.6826 62.0745 81.6144 62.0857 81.5678 62.0857L81.5678 63.0857C81.8603 63.0857 82.1078 62.985 82.3392 62.8476C82.5591 62.7169 82.8054 62.5271 83.0883 62.3104L82.4801 61.5166ZM80.0473 62.3104C80.3302 62.5271 80.5765 62.7169 80.7964 62.8476C81.0278 62.985 81.2753 63.0857 81.5678 63.0857L81.5678 62.0857C81.5212 62.0857 81.453 62.0745 81.3071 61.9878C81.1498 61.8944 80.9575 61.748 80.6555 61.5166L80.0473 62.3104ZM75.0473 103.259C75.7343 103.785 76.2942 104.216 76.7539 104.472C77.2095 104.726 77.7217 104.897 78.2317 104.645L77.7891 103.749C77.7416 103.772 77.6249 103.812 77.2406 103.598C76.8604 103.386 76.3695 103.012 75.6555 102.465L75.0473 103.259ZM78.0678 101.274C78.0678 102.174 78.0665 102.791 78.0034 103.222C77.9396 103.657 77.8365 103.725 77.7891 103.749L78.2317 104.645C78.7416 104.394 78.9172 103.883 78.9928 103.367C79.0691 102.846 79.0678 102.14 79.0678 101.274H78.0678Z" fill="#ACE2FF"/>
<defs>
<filter id="filter0_d_19_98" x="132.701" y="33.368" width="261.144" height="30.888" filterUnits="userSpaceOnUse" color-interpolation-filters="sRGB">
<feFlood flood-opacity="0" result="BackgroundImageFix"/>
<feColorMatrix in="SourceAlpha" type="matrix" values="0 0 0 0 0 0 0 0 0 0 0 0 0 0 0 0 0 0 127 0" result="hardAlpha"/>
<feOffset dx="3" dy="3"/>
<feGaussianBlur stdDeviation="1"/>
<feComposite in2="hardAlpha" operator="out"/>
<feColorMatrix type="matrix" values="0 0 0 0 0.0892228 0 0 0 0 0.0643403 0 0 0 0 0.454167 0 0 0 0.65 0"/>
<feBlend mode="normal" in2="BackgroundImageFix" result="effect1_dropShadow_19_98"/>
<feBlend mode="normal" in="SourceGraphic" in2="effect1_dropShadow_19_98" result="shape"/>
</filter>
<filter id="filter1_d_19_98" x="41.7605" y="16.3946" width="71.8857" height="93.3742" filterUnits="userSpaceOnUse" color-interpolation-filters="sRGB">
<feFlood flood-opacity="0" result="BackgroundImageFix"/>
<feColorMatrix in="SourceAlpha" type="matrix" values="0 0 0 0 0 0 0 0 0 0 0 0 0 0 0 0 0 0 127 0" result="hardAlpha"/>
<feOffset dx="-2" dy="2"/>
<feGaussianBlur stdDeviation="1"/>
<feComposite in2="hardAlpha" operator="out"/>
<feColorMatrix type="matrix" values="0 0 0 0 0 0 0 0 0 0 0 0 0 0 0 0 0 0 0.25 0"/>
<feBlend mode="normal" in2="BackgroundImageFix" result="effect1_dropShadow_19_98"/>
<feBlend mode="normal" in="SourceGraphic" in2="effect1_dropShadow_19_98" result="shape"/>
</filter>
</defs>
</svg>
