<svg width="125" height="124" viewBox="0 0 125 124" fill="none" xmlns="http://www.w3.org/2000/svg">
<g filter="url(#filter0_d_8_32)">
<path fill-rule="evenodd" clip-rule="evenodd" d="M58.5 102.596C58.5 104.298 58.5 105.149 57.9576 105.428C57.4152 105.707 56.7226 105.213 55.3375 104.223L27.3 84.1965C26.4789 83.6099 26.0683 83.3167 25.8467 82.8859C25.625 82.4552 25.625 81.9507 25.625 80.9415V49.5731C25.625 47.871 25.625 47.0199 26.1674 46.7407C26.7098 46.4616 27.4024 46.9563 28.7875 47.9456L57.6625 68.5706C58.073 68.8639 58.2783 69.0105 58.3892 69.2259C58.5 69.4413 58.5 69.6936 58.5 70.1981V102.596ZM64.5 102.596C64.5 104.298 64.5 105.149 65.0424 105.428C65.5848 105.707 66.2774 105.213 67.6625 104.223L95.7 84.1965C96.5211 83.6099 96.9317 83.3167 97.1533 82.8859C97.375 82.4552 97.375 81.9507 97.375 80.9415V49.5731C97.375 47.871 97.375 47.0199 96.8326 46.7407C96.2902 46.4616 95.5976 46.9563 94.2125 47.9456L65.3375 68.5706C64.927 68.8639 64.7217 69.0105 64.6108 69.2259C64.5 69.4413 64.5 69.6936 64.5 70.1981V102.596ZM92.5158 38.5292C93.5545 39.2711 94.0738 39.642 94.0738 40.1567C94.0738 40.6713 93.5545 41.0422 92.5159 41.7841L62.6625 63.108C62.1011 63.5089 61.8205 63.7094 61.5 63.7094C61.1795 63.7094 60.8989 63.5089 60.3375 63.108L30.4842 41.7841C29.4455 41.0422 28.9262 40.6713 28.9262 40.1567C28.9262 39.642 29.4455 39.2711 30.4842 38.5292L59.175 18.0357C60.2977 17.2338 60.8591 16.8328 61.5 16.8328C62.1409 16.8328 62.7023 17.2338 63.825 18.0357L92.5158 38.5292Z" fill="#71B5DA"/>
<path d="M27.3 84.1965L27.5907 83.7896L27.5907 83.7896L27.3 84.1965ZM25.8467 82.8859L26.2912 82.6572L26.2912 82.6571L25.8467 82.8859ZM95.7 84.1965L95.9906 84.6033L95.9906 84.6033L95.7 84.1965ZM97.1533 82.8859L96.7088 82.6571L96.7088 82.6572L97.1533 82.8859ZM59.175 18.0357L59.4657 18.4426L59.4657 18.4426L59.175 18.0357ZM63.825 18.0357L64.1156 17.6288L64.1156 17.6288L63.825 18.0357ZM30.4842 41.7841L30.7748 41.3773L30.4842 41.7841ZM28.9262 40.1567L28.4262 40.1567L28.9262 40.1567ZM92.5159 41.7841L92.2252 41.3773L92.2252 41.3773L92.5159 41.7841ZM92.5158 38.5292L92.8065 38.1223L92.5158 38.5292ZM94.0738 40.1567L94.5738 40.1567L94.0738 40.1567ZM65.3375 68.5706L65.6281 68.9775L65.3375 68.5706ZM64.6108 69.2259L65.0554 69.4547L64.6108 69.2259ZM94.2125 47.9456L94.5031 48.3525L94.2125 47.9456ZM96.8326 46.7407L96.6038 47.1853L96.8326 46.7407ZM57.6625 68.5706L57.3719 68.9775L57.6625 68.5706ZM58.3892 69.2259L58.8338 68.9971L58.3892 69.2259ZM28.7875 47.9456L28.4969 48.3525L28.7875 47.9456ZM26.1674 46.7407L25.9386 46.2962L26.1674 46.7407ZM67.6625 104.223L67.3719 103.816L67.6625 104.223ZM65.0424 105.428L65.2712 104.984L65.0424 105.428ZM62.6625 63.108L62.3719 62.7011L62.3719 62.7011L62.6625 63.108ZM60.3375 63.108L60.6281 62.7011L60.3375 63.108ZM61.5 63.7094L61.5 63.2094L61.5 63.7094ZM55.3375 104.223L55.0469 104.63L55.3375 104.223ZM57.9576 105.428L57.7288 104.984L57.9576 105.428ZM27.0094 84.6033L55.0469 104.63L55.6281 103.816L27.5907 83.7896L27.0094 84.6033ZM25.4021 83.1147C25.5525 83.407 25.7608 83.6367 26.0224 83.8618C26.2765 84.0804 26.6061 84.3152 27.0094 84.6033L27.5907 83.7896C27.1729 83.4912 26.8866 83.2861 26.6747 83.1038C26.4703 82.928 26.3625 82.7957 26.2912 82.6572L25.4021 83.1147ZM25.125 80.9415C25.125 81.4373 25.1245 81.8419 25.1547 82.1757C25.1859 82.5195 25.2517 82.8225 25.4021 83.1147L26.2912 82.6571C26.22 82.5186 26.175 82.354 26.1507 82.0856C26.1255 81.8071 26.125 81.4549 26.125 80.9415H25.125ZM25.125 49.5731V80.9415H26.125V49.5731H25.125ZM57.9531 68.1638L29.0781 47.5388L28.4969 48.3525L57.3719 68.9775L57.9531 68.1638ZM59 102.596V70.1981H58V102.596H59ZM67.9531 104.63L95.9906 84.6033L95.4093 83.7896L67.3719 103.816L67.9531 104.63ZM95.9906 84.6033C96.3939 84.3152 96.7235 84.0804 96.9776 83.8618C97.2392 83.6367 97.4475 83.407 97.5979 83.1147L96.7088 82.6572C96.6375 82.7957 96.5297 82.928 96.3253 83.1038C96.1134 83.2861 95.8271 83.4912 95.4093 83.7896L95.9906 84.6033ZM97.5979 83.1147C97.7483 82.8225 97.8141 82.5195 97.8453 82.1757C97.8755 81.8419 97.875 81.4373 97.875 80.9415H96.875C96.875 81.4549 96.8745 81.8071 96.8493 82.0856C96.825 82.354 96.78 82.5186 96.7088 82.6571L97.5979 83.1147ZM97.875 80.9415V49.5731H96.875V80.9415H97.875ZM93.9219 47.5388L65.0469 68.1638L65.6281 68.9775L94.5031 48.3525L93.9219 47.5388ZM64 70.1981V102.596H65V70.1981H64ZM62.9531 63.5148L92.8065 42.191L92.2252 41.3773L62.3719 62.7011L62.9531 63.5148ZM30.1935 42.191L60.0469 63.5148L60.6281 62.7011L30.7748 41.3773L30.1935 42.191ZM58.8844 17.6288L30.1935 38.1223L30.7748 38.9361L59.4657 18.4426L58.8844 17.6288ZM61.5 16.3328C61.0638 16.3328 60.6778 16.4728 60.2753 16.6965C59.884 16.9139 59.4365 17.2345 58.8844 17.6288L59.4657 18.4426C60.0363 18.035 60.4308 17.7541 60.761 17.5706C61.0801 17.3933 61.2953 17.3328 61.5 17.3328V16.3328ZM64.1156 17.6288C63.5635 17.2345 63.116 16.9139 62.7247 16.6965C62.3222 16.4728 61.9362 16.3328 61.5 16.3328V17.3328C61.7047 17.3328 61.9199 17.3933 62.239 17.5706C62.5692 17.7541 62.9637 18.035 63.5343 18.4426L64.1156 17.6288ZM92.8065 38.1223L64.1156 17.6288L63.5343 18.4426L92.2252 38.9361L92.8065 38.1223ZM30.7748 41.3773C30.2423 40.9969 29.8893 40.7432 29.6623 40.5248C29.4437 40.3145 29.4262 40.2153 29.4262 40.1567L28.4262 40.1567C28.4262 40.6126 28.6683 40.9562 28.969 41.2455C29.2614 41.5268 29.6874 41.8295 30.1935 42.191L30.7748 41.3773ZM30.1935 38.1223C29.6874 38.4839 29.2614 38.7866 28.969 39.0678C28.6683 39.3571 28.4262 39.7007 28.4262 40.1567L29.4262 40.1567C29.4262 40.098 29.4437 39.9988 29.6623 39.7885C29.8893 39.5702 30.2423 39.3164 30.7748 38.9361L30.1935 38.1223ZM92.8065 42.191C93.3126 41.8295 93.7386 41.5268 94.031 41.2455C94.3317 40.9562 94.5738 40.6126 94.5738 40.1567L93.5738 40.1567C93.5738 40.2153 93.5563 40.3145 93.3377 40.5248C93.1107 40.7432 92.7577 40.9969 92.2252 41.3773L92.8065 42.191ZM92.2252 38.9361C92.7577 39.3164 93.1107 39.5702 93.3377 39.7885C93.5563 39.9988 93.5738 40.098 93.5738 40.1567L94.5738 40.1567C94.5738 39.7007 94.3317 39.3571 94.031 39.0678C93.7386 38.7866 93.3126 38.4839 92.8065 38.1223L92.2252 38.9361ZM65.0469 68.1638C64.8488 68.3053 64.6732 68.4301 64.5357 68.5485C64.3905 68.6734 64.2612 68.8126 64.1662 68.9971L65.0554 69.4547C65.0713 69.4239 65.1001 69.3821 65.1879 69.3065C65.2833 69.2244 65.4157 69.1293 65.6281 68.9775L65.0469 68.1638ZM65 70.1981C65 69.937 65.0005 69.774 65.0118 69.6486C65.0223 69.5332 65.0396 69.4855 65.0554 69.4547L64.1662 68.9971C64.0713 69.1817 64.0332 69.3678 64.0159 69.5585C63.9995 69.7392 64 69.9547 64 70.1981H65ZM97.875 49.5731C97.875 48.739 97.8763 48.0561 97.8019 47.5505C97.7277 47.0466 97.5555 46.5505 97.0614 46.2962L96.6038 47.1853C96.6521 47.2102 96.7511 47.2792 96.8125 47.6961C96.8737 48.1114 96.875 48.705 96.875 49.5731H97.875ZM94.5031 48.3525C95.2095 47.8479 95.6934 47.504 96.0668 47.3124C96.4418 47.12 96.5555 47.1605 96.6038 47.1853L97.0614 46.2962C96.5672 46.0419 96.0635 46.1902 95.6103 46.4226C95.1556 46.6559 94.6006 47.054 93.9219 47.5388L94.5031 48.3525ZM57.3719 68.9775C57.5843 69.1293 57.7167 69.2244 57.8121 69.3065C57.8999 69.3821 57.9287 69.4239 57.9446 69.4547L58.8338 68.9971C58.7388 68.8126 58.6095 68.6734 58.4643 68.5485C58.3268 68.4301 58.1512 68.3053 57.9531 68.1638L57.3719 68.9775ZM59 70.1981C59 69.9547 59.0005 69.7392 58.9841 69.5585C58.9668 69.3678 58.9287 69.1817 58.8338 68.9971L57.9446 69.4547C57.9604 69.4855 57.9777 69.5332 57.9882 69.6486C57.9995 69.774 58 69.937 58 70.1981H59ZM26.125 49.5731C26.125 48.705 26.1263 48.1114 26.1875 47.6961C26.2489 47.2792 26.3479 47.2102 26.3962 47.1853L25.9386 46.2962C25.4445 46.5505 25.2723 47.0466 25.1981 47.5505C25.1237 48.0561 25.125 48.739 25.125 49.5731H26.125ZM29.0781 47.5388C28.3994 47.054 27.8444 46.6559 27.3897 46.4226C26.9365 46.1902 26.4328 46.0419 25.9386 46.2962L26.3962 47.1853C26.4445 47.1605 26.5582 47.12 26.9332 47.3124C27.3066 47.504 27.7905 47.8479 28.4969 48.3525L29.0781 47.5388ZM67.3719 103.816C66.6655 104.321 66.1816 104.665 65.8082 104.857C65.4332 105.049 65.3195 105.008 65.2712 104.984L64.8136 105.873C65.3078 106.127 65.8115 105.979 66.2647 105.746C66.7194 105.513 67.2744 105.115 67.9531 104.63L67.3719 103.816ZM64 102.596C64 103.43 63.9987 104.113 64.0731 104.618C64.1473 105.122 64.3195 105.618 64.8136 105.873L65.2712 104.984C65.2229 104.959 65.1239 104.89 65.0625 104.473C65.0013 104.058 65 103.464 65 102.596H64ZM62.3719 62.7011C62.0819 62.9082 61.8979 63.0387 61.748 63.122C61.6094 63.1991 61.5445 63.2094 61.5 63.2094L61.5 64.2094C61.776 64.2094 62.0117 64.1195 62.2338 63.9961C62.4447 63.8789 62.6817 63.7087 62.9531 63.5148L62.3719 62.7011ZM60.0469 63.5148C60.3183 63.7087 60.5553 63.8789 60.7662 63.9961C60.9883 64.1195 61.224 64.2094 61.5 64.2094L61.5 63.2094C61.4555 63.2094 61.3906 63.1991 61.252 63.122C61.1021 63.0387 60.9181 62.9082 60.6281 62.7011L60.0469 63.5148ZM55.0469 104.63C55.7256 105.115 56.2806 105.513 56.7353 105.746C57.1885 105.979 57.6922 106.127 58.1864 105.873L57.7288 104.984C57.6805 105.008 57.5668 105.049 57.1918 104.857C56.8184 104.665 56.3345 104.321 55.6281 103.816L55.0469 104.63ZM58 102.596C58 103.464 57.9987 104.058 57.9375 104.473C57.8761 104.89 57.7771 104.959 57.7288 104.984L58.1864 105.873C58.6805 105.618 58.8527 105.122 58.9269 104.618C59.0013 104.113 59 103.43 59 102.596H58Z" fill="#71B5DA"/>
</g>
<path fill-rule="evenodd" clip-rule="evenodd" d="M60.5 101.596C60.5 103.298 60.5 104.149 59.9576 104.428C59.4152 104.707 58.7226 104.213 57.3375 103.223L29.3 83.1965C28.4789 82.6099 28.0683 82.3167 27.8467 81.8859C27.625 81.4552 27.625 80.9507 27.625 79.9415V48.5731C27.625 46.871 27.625 46.0199 28.1674 45.7407C28.7098 45.4616 29.4024 45.9563 30.7875 46.9456L59.6625 67.5706C60.073 67.8639 60.2783 68.0105 60.3892 68.2259C60.5 68.4413 60.5 68.6936 60.5 69.1981V101.596ZM66.5 101.596C66.5 103.298 66.5 104.149 67.0424 104.428C67.5848 104.707 68.2774 104.213 69.6625 103.223L97.7 83.1965C98.5211 82.6099 98.9317 82.3167 99.1533 81.8859C99.375 81.4552 99.375 80.9507 99.375 79.9415V48.5731C99.375 46.871 99.375 46.0199 98.8326 45.7407C98.2902 45.4616 97.5976 45.9563 96.2125 46.9456L67.3375 67.5706C66.927 67.8639 66.7217 68.0105 66.6108 68.2259C66.5 68.4413 66.5 68.6936 66.5 69.1981V101.596ZM94.5158 37.5292C95.5545 38.2711 96.0738 38.642 96.0738 39.1567C96.0738 39.6713 95.5545 40.0422 94.5159 40.7841L64.6625 62.108C64.1011 62.5089 63.8205 62.7094 63.5 62.7094C63.1795 62.7094 62.8989 62.5089 62.3375 62.108L32.4842 40.7841C31.4455 40.0422 30.9262 39.6713 30.9262 39.1567C30.9262 38.642 31.4455 38.2711 32.4842 37.5292L61.175 17.0357C62.2977 16.2338 62.8591 15.8328 63.5 15.8328C64.1409 15.8328 64.7023 16.2338 65.825 17.0357L94.5158 37.5292Z" fill="#ACE2FF"/>
<path d="M29.3 83.1965L29.5907 82.7896L29.5907 82.7896L29.3 83.1965ZM27.8467 81.8859L28.2912 81.6572L28.2912 81.6571L27.8467 81.8859ZM97.7 83.1965L97.9906 83.6033L97.9906 83.6033L97.7 83.1965ZM99.1533 81.8859L98.7088 81.6571L98.7088 81.6572L99.1533 81.8859ZM61.175 17.0357L61.4657 17.4426L61.4657 17.4426L61.175 17.0357ZM65.825 17.0357L66.1156 16.6288L66.1156 16.6288L65.825 17.0357ZM32.4842 40.7841L32.7748 40.3773L32.4842 40.7841ZM30.9262 39.1567L30.4262 39.1567L30.9262 39.1567ZM94.5159 40.7841L94.2252 40.3773L94.2252 40.3773L94.5159 40.7841ZM94.5158 37.5292L94.8065 37.1223L94.5158 37.5292ZM96.0738 39.1567L96.5738 39.1567L96.0738 39.1567ZM67.3375 67.5706L67.6281 67.9775L67.3375 67.5706ZM66.6108 68.2259L67.0554 68.4547L66.6108 68.2259ZM96.2125 46.9456L96.5031 47.3525L96.2125 46.9456ZM98.8326 45.7407L98.6038 46.1853L98.8326 45.7407ZM59.6625 67.5706L59.3719 67.9775L59.6625 67.5706ZM60.3892 68.2259L60.8338 67.9971L60.3892 68.2259ZM30.7875 46.9456L30.4969 47.3525L30.7875 46.9456ZM28.1674 45.7407L27.9386 45.2962L28.1674 45.7407ZM69.6625 103.223L69.3719 102.816L69.6625 103.223ZM67.0424 104.428L67.2712 103.984L67.0424 104.428ZM64.6625 62.108L64.3719 61.7011L64.3719 61.7011L64.6625 62.108ZM62.3375 62.108L62.6281 61.7011L62.3375 62.108ZM63.5 62.7094L63.5 62.2094L63.5 62.7094ZM57.3375 103.223L57.0469 103.63L57.3375 103.223ZM59.9576 104.428L59.7288 103.984L59.9576 104.428ZM29.0094 83.6033L57.0469 103.63L57.6281 102.816L29.5907 82.7896L29.0094 83.6033ZM27.4021 82.1147C27.5525 82.407 27.7608 82.6367 28.0224 82.8618C28.2765 83.0804 28.6061 83.3152 29.0094 83.6033L29.5907 82.7896C29.1729 82.4912 28.8866 82.2861 28.6747 82.1038C28.4703 81.928 28.3625 81.7957 28.2912 81.6572L27.4021 82.1147ZM27.125 79.9415C27.125 80.4373 27.1245 80.8419 27.1547 81.1757C27.1859 81.5195 27.2517 81.8225 27.4021 82.1147L28.2912 81.6571C28.22 81.5186 28.175 81.354 28.1507 81.0856C28.1255 80.8071 28.125 80.4549 28.125 79.9415H27.125ZM27.125 48.5731V79.9415H28.125V48.5731H27.125ZM59.9531 67.1638L31.0781 46.5388L30.4969 47.3525L59.3719 67.9775L59.9531 67.1638ZM61 101.596V69.1981H60V101.596H61ZM69.9531 103.63L97.9906 83.6033L97.4093 82.7896L69.3719 102.816L69.9531 103.63ZM97.9906 83.6033C98.3939 83.3152 98.7235 83.0804 98.9776 82.8618C99.2392 82.6367 99.4475 82.407 99.5979 82.1147L98.7088 81.6572C98.6375 81.7957 98.5297 81.928 98.3253 82.1038C98.1134 82.2861 97.8271 82.4912 97.4093 82.7896L97.9906 83.6033ZM99.5979 82.1147C99.7483 81.8225 99.8141 81.5195 99.8453 81.1757C99.8755 80.8419 99.875 80.4373 99.875 79.9415H98.875C98.875 80.4549 98.8745 80.8071 98.8493 81.0856C98.825 81.354 98.78 81.5186 98.7088 81.6571L99.5979 82.1147ZM99.875 79.9415V48.5731H98.875V79.9415H99.875ZM95.9219 46.5388L67.0469 67.1638L67.6281 67.9775L96.5031 47.3525L95.9219 46.5388ZM66 69.1981V101.596H67V69.1981H66ZM64.9531 62.5148L94.8065 41.191L94.2252 40.3773L64.3719 61.7011L64.9531 62.5148ZM32.1935 41.191L62.0469 62.5148L62.6281 61.7011L32.7748 40.3773L32.1935 41.191ZM60.8844 16.6288L32.1935 37.1223L32.7748 37.9361L61.4657 17.4426L60.8844 16.6288ZM63.5 15.3328C63.0638 15.3328 62.6778 15.4728 62.2753 15.6965C61.884 15.9139 61.4365 16.2345 60.8844 16.6288L61.4657 17.4426C62.0363 17.035 62.4308 16.7541 62.761 16.5706C63.0801 16.3933 63.2953 16.3328 63.5 16.3328V15.3328ZM66.1156 16.6288C65.5635 16.2345 65.116 15.9139 64.7247 15.6965C64.3222 15.4728 63.9362 15.3328 63.5 15.3328V16.3328C63.7047 16.3328 63.9199 16.3933 64.239 16.5706C64.5692 16.7541 64.9637 17.035 65.5343 17.4426L66.1156 16.6288ZM94.8065 37.1223L66.1156 16.6288L65.5343 17.4426L94.2252 37.9361L94.8065 37.1223ZM32.7748 40.3773C32.2423 39.9969 31.8893 39.7432 31.6623 39.5248C31.4437 39.3145 31.4262 39.2153 31.4262 39.1567L30.4262 39.1567C30.4262 39.6126 30.6683 39.9562 30.969 40.2455C31.2614 40.5268 31.6874 40.8295 32.1935 41.191L32.7748 40.3773ZM32.1935 37.1223C31.6874 37.4839 31.2614 37.7866 30.969 38.0678C30.6683 38.3571 30.4262 38.7007 30.4262 39.1567L31.4262 39.1567C31.4262 39.098 31.4437 38.9988 31.6623 38.7885C31.8893 38.5702 32.2423 38.3164 32.7748 37.9361L32.1935 37.1223ZM94.8065 41.191C95.3126 40.8295 95.7386 40.5268 96.031 40.2455C96.3317 39.9562 96.5738 39.6126 96.5738 39.1567L95.5738 39.1567C95.5738 39.2153 95.5563 39.3145 95.3377 39.5248C95.1107 39.7432 94.7577 39.9969 94.2252 40.3773L94.8065 41.191ZM94.2252 37.9361C94.7577 38.3164 95.1107 38.5702 95.3377 38.7885C95.5563 38.9988 95.5738 39.098 95.5738 39.1567L96.5738 39.1567C96.5738 38.7007 96.3317 38.3571 96.031 38.0678C95.7386 37.7866 95.3126 37.4839 94.8065 37.1223L94.2252 37.9361ZM67.0469 67.1638C66.8488 67.3053 66.6732 67.4301 66.5357 67.5485C66.3905 67.6734 66.2612 67.8126 66.1662 67.9971L67.0554 68.4547C67.0713 68.4239 67.1001 68.3821 67.1879 68.3065C67.2833 68.2244 67.4157 68.1293 67.6281 67.9775L67.0469 67.1638ZM67 69.1981C67 68.937 67.0005 68.774 67.0118 68.6486C67.0223 68.5332 67.0396 68.4855 67.0554 68.4547L66.1662 67.9971C66.0713 68.1817 66.0332 68.3678 66.0159 68.5585C65.9995 68.7392 66 68.9547 66 69.1981H67ZM99.875 48.5731C99.875 47.739 99.8763 47.0561 99.8019 46.5505C99.7277 46.0466 99.5555 45.5505 99.0614 45.2962L98.6038 46.1853C98.6521 46.2102 98.7511 46.2792 98.8125 46.6961C98.8737 47.1114 98.875 47.705 98.875 48.5731H99.875ZM96.5031 47.3525C97.2095 46.8479 97.6934 46.504 98.0668 46.3124C98.4418 46.12 98.5555 46.1605 98.6038 46.1853L99.0614 45.2962C98.5672 45.0419 98.0635 45.1902 97.6103 45.4226C97.1556 45.6559 96.6006 46.054 95.9219 46.5388L96.5031 47.3525ZM59.3719 67.9775C59.5843 68.1293 59.7167 68.2244 59.8121 68.3065C59.8999 68.3821 59.9287 68.4239 59.9446 68.4547L60.8338 67.9971C60.7388 67.8126 60.6095 67.6734 60.4643 67.5485C60.3268 67.4301 60.1512 67.3053 59.9531 67.1638L59.3719 67.9775ZM61 69.1981C61 68.9547 61.0005 68.7392 60.9841 68.5585C60.9668 68.3678 60.9287 68.1817 60.8338 67.9971L59.9446 68.4547C59.9604 68.4855 59.9777 68.5332 59.9882 68.6486C59.9995 68.774 60 68.937 60 69.1981H61ZM28.125 48.5731C28.125 47.705 28.1263 47.1114 28.1875 46.6961C28.2489 46.2792 28.3479 46.2102 28.3962 46.1853L27.9386 45.2962C27.4445 45.5505 27.2723 46.0466 27.1981 46.5505C27.1237 47.0561 27.125 47.739 27.125 48.5731H28.125ZM31.0781 46.5388C30.3994 46.054 29.8444 45.6559 29.3897 45.4226C28.9365 45.1902 28.4328 45.0419 27.9386 45.2962L28.3962 46.1853C28.4445 46.1605 28.5582 46.12 28.9332 46.3124C29.3066 46.504 29.7905 46.8479 30.4969 47.3525L31.0781 46.5388ZM69.3719 102.816C68.6655 103.321 68.1816 103.665 67.8082 103.857C67.4332 104.049 67.3195 104.008 67.2712 103.984L66.8136 104.873C67.3078 105.127 67.8115 104.979 68.2647 104.746C68.7194 104.513 69.2744 104.115 69.9531 103.63L69.3719 102.816ZM66 101.596C66 102.43 65.9987 103.113 66.0731 103.618C66.1473 104.122 66.3195 104.618 66.8136 104.873L67.2712 103.984C67.2229 103.959 67.1239 103.89 67.0625 103.473C67.0013 103.058 67 102.464 67 101.596H66ZM64.3719 61.7011C64.0819 61.9082 63.8979 62.0387 63.748 62.122C63.6094 62.1991 63.5445 62.2094 63.5 62.2094L63.5 63.2094C63.776 63.2094 64.0117 63.1195 64.2338 62.9961C64.4447 62.8789 64.6817 62.7087 64.9531 62.5148L64.3719 61.7011ZM62.0469 62.5148C62.3183 62.7087 62.5553 62.8789 62.7662 62.9961C62.9883 63.1195 63.224 63.2094 63.5 63.2094L63.5 62.2094C63.4555 62.2094 63.3906 62.1991 63.252 62.122C63.1021 62.0387 62.9181 61.9082 62.6281 61.7011L62.0469 62.5148ZM57.0469 103.63C57.7256 104.115 58.2806 104.513 58.7353 104.746C59.1885 104.979 59.6922 105.127 60.1864 104.873L59.7288 103.984C59.6805 104.008 59.5668 104.049 59.1918 103.857C58.8184 103.665 58.3345 103.321 57.6281 102.816L57.0469 103.63ZM60 101.596C60 102.464 59.9987 103.058 59.9375 103.473C59.8761 103.89 59.7771 103.959 59.7288 103.984L60.1864 104.873C60.6805 104.618 60.8527 104.122 60.9269 103.618C61.0013 103.113 61 102.43 61 101.596H60Z" fill="#ACE2FF"/>
<defs>
<filter id="filter0_d_8_32" x="21.125" y="16.3328" width="76.75" height="93.6729" filterUnits="userSpaceOnUse" color-interpolation-filters="sRGB">
<feFlood flood-opacity="0" result="BackgroundImageFix"/>
<feColorMatrix in="SourceAlpha" type="matrix" values="0 0 0 0 0 0 0 0 0 0 0 0 0 0 0 0 0 0 127 0" result="hardAlpha"/>
<feOffset dx="-2" dy="2"/>
<feGaussianBlur stdDeviation="1"/>
<feComposite in2="hardAlpha" operator="out"/>
<feColorMatrix type="matrix" values="0 0 0 0 0 0 0 0 0 0 0 0 0 0 0 0 0 0 0.25 0"/>
<feBlend mode="normal" in2="BackgroundImageFix" result="effect1_dropShadow_8_32"/>
<feBlend mode="normal" in="SourceGraphic" in2="effect1_dropShadow_8_32" result="shape"/>
</filter>
</defs>
</svg>
