<svg width="164" height="55" viewBox="0 0 164 55" fill="none" xmlns="http://www.w3.org/2000/svg">
<path d="M2 13C2 7.47715 6.47715 3 12 3H154C159.523 3 164 7.47715 164 13V45C164 50.5228 159.523 55 154 55H12C6.47716 55 2 50.5228 2 45V13Z" fill="#62068A"/>
<path d="M0 10C0 4.47715 4.47715 0 10 0H152C157.523 0 162 4.47715 162 10V42C162 47.5228 157.523 52 152 52H10C4.47716 52 0 47.5228 0 42V10Z" fill="#C6088C"/>
<path d="M47.2462 18.04L42.1262 32H38.7262L33.6062 18.04H36.6062L40.4462 29.14L44.2662 18.04H47.2462ZM59.2249 26.22C59.2249 26.62 59.1983 26.98 59.1449 27.3H51.0449C51.1116 28.1 51.3916 28.7267 51.8849 29.18C52.3783 29.6333 52.9849 29.86 53.7049 29.86C54.7449 29.86 55.4849 29.4133 55.9249 28.52H58.9449C58.6249 29.5867 58.0116 30.4667 57.1049 31.16C56.1983 31.84 55.0849 32.18 53.7649 32.18C52.6983 32.18 51.7383 31.9467 50.8849 31.48C50.0449 31 49.3849 30.3267 48.9049 29.46C48.4383 28.5933 48.2049 27.5933 48.2049 26.46C48.2049 25.3133 48.4383 24.3067 48.9049 23.44C49.3716 22.5733 50.0249 21.9067 50.8649 21.44C51.7049 20.9733 52.6716 20.74 53.7649 20.74C54.8183 20.74 55.7583 20.9667 56.5849 21.42C57.4249 21.8733 58.0716 22.52 58.5249 23.36C58.9916 24.1867 59.2249 25.14 59.2249 26.22ZM56.3249 25.42C56.3116 24.7 56.0516 24.1267 55.5449 23.7C55.0383 23.26 54.4183 23.04 53.6849 23.04C52.9916 23.04 52.4049 23.2533 51.9249 23.68C51.4583 24.0933 51.1716 24.6733 51.0649 25.42H56.3249ZM62.6887 19.6C62.182 19.6 61.762 19.4467 61.4287 19.14C61.1087 18.82 60.9487 18.4267 60.9487 17.96C60.9487 17.4933 61.1087 17.1067 61.4287 16.8C61.762 16.48 62.182 16.32 62.6887 16.32C63.182 16.32 63.5887 16.48 63.9087 16.8C64.2287 17.1067 64.3887 17.4933 64.3887 17.96C64.3887 18.4267 64.2287 18.82 63.9087 19.14C63.5887 19.4467 63.182 19.6 62.6887 19.6ZM64.0687 33.82C64.0687 35.0467 63.762 35.9267 63.1487 36.46C62.5487 37.0067 61.682 37.28 60.5487 37.28H59.3087V34.9H60.1087C60.5353 34.9 60.8353 34.8133 61.0087 34.64C61.182 34.48 61.2687 34.2133 61.2687 33.84V20.92H64.0687V33.82ZM66.1151 26.42C66.1151 25.3 66.3351 24.3067 66.7751 23.44C67.2284 22.5733 67.8351 21.9067 68.5951 21.44C69.3684 20.9733 70.2284 20.74 71.1751 20.74C72.0017 20.74 72.7217 20.9067 73.3351 21.24C73.9617 21.5733 74.4617 21.9933 74.8351 22.5V20.92H77.6551V32H74.8351V30.38C74.4751 30.9 73.9751 31.3333 73.3351 31.68C72.7084 32.0133 71.9817 32.18 71.1551 32.18C70.2217 32.18 69.3684 31.94 68.5951 31.46C67.8351 30.98 67.2284 30.3067 66.7751 29.44C66.3351 28.56 66.1151 27.5533 66.1151 26.42ZM74.8351 26.46C74.8351 25.78 74.7017 25.2 74.4351 24.72C74.1684 24.2267 73.8084 23.8533 73.3551 23.6C72.9017 23.3333 72.4151 23.2 71.8951 23.2C71.3751 23.2 70.8951 23.3267 70.4551 23.58C70.0151 23.8333 69.6551 24.2067 69.3751 24.7C69.1084 25.18 68.9751 25.7533 68.9751 26.42C68.9751 27.0867 69.1084 27.6733 69.3751 28.18C69.6551 28.6733 70.0151 29.0533 70.4551 29.32C70.9084 29.5867 71.3884 29.72 71.8951 29.72C72.4151 29.72 72.9017 29.5933 73.3551 29.34C73.8084 29.0733 74.1684 28.7 74.4351 28.22C74.7017 27.7267 74.8351 27.14 74.8351 26.46ZM84.4354 26.42C84.4354 25.3 84.6554 24.3067 85.0954 23.44C85.5487 22.5733 86.1554 21.9067 86.9154 21.44C87.6887 20.9733 88.5487 20.74 89.4954 20.74C90.3221 20.74 91.0421 20.9067 91.6554 21.24C92.2821 21.5733 92.7821 21.9933 93.1554 22.5V20.92H95.9754V32H93.1554V30.38C92.7954 30.9 92.2954 31.3333 91.6554 31.68C91.0287 32.0133 90.3021 32.18 89.4754 32.18C88.5421 32.18 87.6887 31.94 86.9154 31.46C86.1554 30.98 85.5487 30.3067 85.0954 29.44C84.6554 28.56 84.4354 27.5533 84.4354 26.42ZM93.1554 26.46C93.1554 25.78 93.0221 25.2 92.7554 24.72C92.4887 24.2267 92.1287 23.8533 91.6754 23.6C91.2221 23.3333 90.7354 23.2 90.2154 23.2C89.6954 23.2 89.2154 23.3267 88.7754 23.58C88.3354 23.8333 87.9754 24.2067 87.6954 24.7C87.4287 25.18 87.2954 25.7533 87.2954 26.42C87.2954 27.0867 87.4287 27.6733 87.6954 28.18C87.9754 28.6733 88.3354 29.0533 88.7754 29.32C89.2287 29.5867 89.7087 29.72 90.2154 29.72C90.7354 29.72 91.2221 29.5933 91.6754 29.34C92.1287 29.0733 92.4887 28.7 92.7554 28.22C93.0221 27.7267 93.1554 27.14 93.1554 26.46ZM97.9901 26.44C97.9901 25.3333 98.2167 24.3533 98.6701 23.5C99.1367 22.6333 99.7634 21.96 100.55 21.48C101.337 21 102.203 20.76 103.15 20.76C103.937 20.76 104.63 20.9133 105.23 21.22C105.843 21.5133 106.337 21.8933 106.71 22.36V20.92H109.53V37.28H106.71V30.48C106.337 30.96 105.837 31.36 105.21 31.68C104.583 32 103.877 32.16 103.09 32.16C102.157 32.16 101.297 31.92 100.51 31.44C99.7367 30.9467 99.1234 30.2667 98.6701 29.4C98.2167 28.5333 97.9901 27.5467 97.9901 26.44ZM106.71 26.46C106.71 25.78 106.57 25.1933 106.29 24.7C106.01 24.2067 105.643 23.8333 105.19 23.58C104.75 23.3267 104.277 23.2 103.77 23.2C103.277 23.2 102.803 23.3267 102.35 23.58C101.91 23.8333 101.55 24.2067 101.27 24.7C100.99 25.18 100.85 25.76 100.85 26.44C100.85 27.12 100.99 27.7133 101.27 28.22C101.55 28.7133 101.91 29.0867 102.35 29.34C102.803 29.5933 103.277 29.72 103.77 29.72C104.277 29.72 104.75 29.5933 105.19 29.34C105.643 29.0867 106.01 28.7133 106.29 28.22C106.57 27.7267 106.71 27.14 106.71 26.46ZM122.725 20.92V32H119.905V30.6C119.545 31.08 119.071 31.46 118.485 31.74C117.911 32.0067 117.285 32.14 116.605 32.14C115.738 32.14 114.971 31.96 114.305 31.6C113.638 31.2267 113.111 30.6867 112.725 29.98C112.351 29.26 112.165 28.4067 112.165 27.42V20.92H114.965V27.02C114.965 27.9 115.185 28.58 115.625 29.06C116.065 29.5267 116.665 29.76 117.425 29.76C118.198 29.76 118.805 29.5267 119.245 29.06C119.685 28.58 119.905 27.9 119.905 27.02V20.92H122.725ZM126.907 19.6C126.414 19.6 126.001 19.4467 125.667 19.14C125.347 18.82 125.187 18.4267 125.187 17.96C125.187 17.4933 125.347 17.1067 125.667 16.8C126.001 16.48 126.414 16.32 126.907 16.32C127.401 16.32 127.807 16.48 128.127 16.8C128.461 17.1067 128.627 17.4933 128.627 17.96C128.627 18.4267 128.461 18.82 128.127 19.14C127.807 19.4467 127.401 19.6 126.907 19.6ZM128.287 20.92V32H125.487V20.92H128.287Z" fill="white"/>
</svg>
