<svg width="50" height="50" viewBox="0 0 50 50" fill="none" xmlns="http://www.w3.org/2000/svg">
<path d="M39.8452 10.0804C36.0121 6.23822 30.9075 4.125 25.4827 4.125C14.2853 4.125 5.17381 13.2365 5.17381 24.4338C5.17381 28.0108 6.10692 31.5053 7.88166 34.5883L5 45.1086L15.7673 42.2818C18.7313 43.9011 22.0704 44.7518 25.4735 44.7518H25.4827C36.6708 44.7518 45.9836 35.6403 45.9836 24.443C45.9836 19.0182 43.6783 13.9226 39.8452 10.0804ZM25.4827 41.3304C22.4455 41.3304 19.4723 40.5162 16.8834 38.9794L16.2705 38.6134L9.8851 40.2875L11.5867 34.0577L11.1841 33.4173C9.49173 30.7278 8.60436 27.6265 8.60436 24.4338C8.60436 15.1302 16.179 7.55555 25.4918 7.55555C30.0018 7.55555 34.2374 9.31199 37.421 12.5047C40.6045 15.6974 42.5622 19.933 42.5531 24.443C42.5531 33.7558 34.7863 41.3304 25.4827 41.3304ZM34.7406 28.6877C34.2374 28.4316 31.74 27.2057 31.2734 27.0411C30.8069 26.8672 30.4684 26.7849 30.1299 27.2972C29.7914 27.8095 28.8217 28.9439 28.5198 29.2915C28.2271 29.63 27.9252 29.6757 27.4221 29.4196C24.4398 27.9284 22.4821 26.7575 20.5152 23.3818C19.9938 22.4853 21.0367 22.5493 22.0064 20.6099C22.171 20.2714 22.0887 19.9787 21.9606 19.7226C21.8326 19.4664 20.8171 16.969 20.3963 15.9535C19.9846 14.9655 19.5638 15.1028 19.2528 15.0845C18.96 15.0662 18.6216 15.0662 18.2831 15.0662C17.9446 15.0662 17.3957 15.1942 16.9292 15.6974C16.4626 16.2097 15.1544 17.4355 15.1544 19.933C15.1544 22.4304 16.9749 24.8455 17.2219 25.184C17.478 25.5225 20.7988 30.6454 25.8943 32.8501C29.1145 34.2406 30.3769 34.3596 31.987 34.1217C32.9658 33.9753 34.9876 32.8959 35.4084 31.7066C35.8292 30.5173 35.8292 29.5019 35.7011 29.2915C35.5822 29.0628 35.2437 28.9347 34.7406 28.6877Z" fill="#76CFFF"/>
</svg>
